<?xml version="1.0" encoding="utf-8"?>
<!-- Generator: Adobe Illustrator 17.0.0, SVG Export Plug-In . SVG Version: 6.00 Build 0)  -->
<!DOCTYPE svg PUBLIC "-//W3C//DTD SVG 1.1//EN" "http://www.w3.org/Graphics/SVG/1.1/DTD/svg11.dtd">
<svg version="1.1" id="Layer_1" xmlns="http://www.w3.org/2000/svg" xmlns:xlink="http://www.w3.org/1999/xlink" x="0px" y="0px"
	 width="180px" height="33px" viewBox="0 0 180 33" enable-background="new 0 0 180 33" xml:space="preserve">
<g>
	<defs>
		<rect id="SVGID_1_" x="-159.654" y="-345" width="221.177" height="90.428"/>
	</defs>
	<clipPath id="SVGID_2_">
		<use xlink:href="#SVGID_1_"  overflow="visible"/>
	</clipPath>
	<g clip-path="url(#SVGID_2_)">
		<defs>
			<rect id="SVGID_3_" x="-224.654" y="-388" width="352" height="310"/>
		</defs>
		<clipPath id="SVGID_4_">
			<use xlink:href="#SVGID_3_"  overflow="visible"/>
		</clipPath>
		<g clip-path="url(#SVGID_4_)" enable-background="new    ">
			<g>
				<defs>
					<rect id="SVGID_6_" x="-159.654" y="-345" width="222" height="91"/>
				</defs>
				<clipPath id="SVGID_8_">
					<use xlink:href="#SVGID_6_"  overflow="visible"/>
				</clipPath>
				<g clip-path="url(#SVGID_8_)">
					<defs>
						<path id="SVGID_9_" d="M-156.57-254.572c10.386-49.828,54.638-87.378,107.502-87.378c52.626,0,96.705,37.217,107.348,86.708
							c1.069-0.129,2.212,0.045,3.243,0.512C51.028-306.174,5.43-345-49.068-345c-54.49,0-100.084,38.817-110.586,90.251
							C-158.612-255.11-157.539-255.015-156.57-254.572"/>
					</defs>
					<clipPath id="SVGID_10_">
						<use xlink:href="#SVGID_9_"  overflow="visible"/>
					</clipPath>
					<g clip-path="url(#SVGID_10_)">
						<defs>
							<rect id="SVGID_11_" x="-159.654" y="-345" width="222" height="91"/>
						</defs>
						<clipPath id="SVGID_12_">
							<use xlink:href="#SVGID_11_"  overflow="visible"/>
						</clipPath>
						<rect x="-164.654" y="-350" clip-path="url(#SVGID_12_)" fill="#220E00" width="231.177" height="100.428"/>
					</g>
				</g>
			</g>
		</g>
	</g>
</g>
<g>
	<defs>
		<rect id="SVGID_14_" x="-158.368" y="-204.455" width="218.642" height="85.185"/>
	</defs>
	<clipPath id="SVGID_16_">
		<use xlink:href="#SVGID_14_"  overflow="visible"/>
	</clipPath>
	<g clip-path="url(#SVGID_16_)">
		<defs>
			<rect id="SVGID_18_" x="-224.654" y="-388" width="352" height="310"/>
		</defs>
		<clipPath id="SVGID_20_">
			<use xlink:href="#SVGID_18_"  overflow="visible"/>
		</clipPath>
		<g clip-path="url(#SVGID_20_)" enable-background="new    ">
			<g>
				<defs>
					<rect id="SVGID_22_" x="-158.654" y="-205" width="219" height="86"/>
				</defs>
				<clipPath id="SVGID_24_">
					<use xlink:href="#SVGID_22_"  overflow="visible"/>
				</clipPath>
				<g clip-path="url(#SVGID_24_)">
					<defs>
						<path id="SVGID_25_" d="M57.169-204.455C44.864-157.267,1.921-122.32-49.068-122.32c-50.936,0-93.874-34.863-106.23-81.978
							c-0.988,0.405-2.064,0.534-3.07,0.356c12.553,48.636,56.797,84.673,109.3,84.673c52.632,0,96.916-36.233,109.342-85.051
							C59.261-204.176,58.211-204.225,57.169-204.455"/>
					</defs>
					<clipPath id="SVGID_26_">
						<use xlink:href="#SVGID_25_"  overflow="visible"/>
					</clipPath>
					<g clip-path="url(#SVGID_26_)">
						<defs>
							<rect id="SVGID_27_" x="-158.654" y="-205" width="219" height="86"/>
						</defs>
						<clipPath id="SVGID_28_">
							<use xlink:href="#SVGID_27_"  overflow="visible"/>
						</clipPath>
						<rect x="-163.368" y="-209.455" clip-path="url(#SVGID_28_)" fill="#220E00" width="228.642" height="95.186"/>
					</g>
				</g>
			</g>
		</g>
	</g>
</g>
<g>
	<defs>
		<path id="SVGID_29_" d="M-71.946-254.776c0.801,0,1.604,0.007,2.407,0.014l-45.559-45.56c-0.596-0.596-1.561-0.596-2.157,0
			s-0.596,1.561,0,2.157l43.662,43.661C-73.095-254.664-72.559-254.776-71.946-254.776"/>
	</defs>
	<clipPath id="SVGID_30_">
		<use xlink:href="#SVGID_29_"  overflow="visible"/>
	</clipPath>
	<g clip-path="url(#SVGID_30_)">
		<defs>
			<rect id="SVGID_31_" x="-224.654" y="-388" width="352" height="310"/>
		</defs>
		<clipPath id="SVGID_32_">
			<use xlink:href="#SVGID_31_"  overflow="visible"/>
		</clipPath>
		<rect x="-122.702" y="-305.769" clip-path="url(#SVGID_32_)" fill="#220E00" width="58.163" height="56.265"/>
	</g>
</g>
<g>
	<defs>
		<path id="SVGID_34_" d="M19.12-166.104l-39.491-39.491c-1.317,0.243-2.684,0.334-3.999,0.314l41.333,41.334
			c0.298,0.298,0.688,0.447,1.078,0.447c0.391,0,0.781-0.149,1.079-0.447C19.716-164.544,19.716-165.508,19.12-166.104"/>
	</defs>
	<clipPath id="SVGID_36_">
		<use xlink:href="#SVGID_34_"  overflow="visible"/>
	</clipPath>
	<g clip-path="url(#SVGID_36_)">
		<defs>
			<rect id="SVGID_38_" x="-224.654" y="-388" width="352" height="310"/>
		</defs>
		<clipPath id="SVGID_40_">
			<use xlink:href="#SVGID_38_"  overflow="visible"/>
		</clipPath>
		<rect x="-29.37" y="-210.596" clip-path="url(#SVGID_40_)" fill="#220E00" width="53.937" height="52.095"/>
	</g>
</g>
<g>
	<defs>
		<path id="SVGID_42_" d="M-78.965-204.395l-38.29,38.29c-0.596,0.596-0.596,1.561,0,2.157c0.298,0.298,0.688,0.447,1.078,0.447
			s0.781-0.149,1.079-0.447l40.125-40.126C-76.31-204.094-77.644-204.216-78.965-204.395"/>
	</defs>
	<clipPath id="SVGID_44_">
		<use xlink:href="#SVGID_42_"  overflow="visible"/>
	</clipPath>
	<g clip-path="url(#SVGID_44_)">
		<defs>
			<rect id="SVGID_46_" x="-224.654" y="-388" width="352" height="310"/>
		</defs>
		<clipPath id="SVGID_48_">
			<use xlink:href="#SVGID_46_"  overflow="visible"/>
		</clipPath>
		<rect x="-122.702" y="-209.395" clip-path="url(#SVGID_48_)" fill="#220E00" width="52.729" height="50.894"/>
	</g>
</g>
<g>
	<defs>
		<path id="SVGID_50_" d="M19.12-300.322c-0.596-0.596-1.561-0.596-2.157,0l-45.32,45.32c1.177,0.184,2.342,0.462,3.497,0.817
			l43.98-43.98C19.716-298.761,19.716-299.726,19.12-300.322"/>
	</defs>
	<clipPath id="SVGID_52_">
		<use xlink:href="#SVGID_50_"  overflow="visible"/>
	</clipPath>
	<g clip-path="url(#SVGID_52_)">
		<defs>
			<rect id="SVGID_54_" x="-224.654" y="-388" width="352" height="310"/>
		</defs>
		<clipPath id="SVGID_56_">
			<use xlink:href="#SVGID_54_"  overflow="visible"/>
		</clipPath>
		<rect x="-33.357" y="-305.769" clip-path="url(#SVGID_56_)" fill="#220E00" width="57.924" height="56.584"/>
	</g>
</g>
<g>
	<defs>
		<path id="SVGID_58_" d="M-19.814-309.089c-0.401-0.389-1.042-0.379-1.431,0.024c-2.501,2.588-4.83,5.108-6.702,7.133
			c-0.478,0.518-0.916,0.992-1.314,1.418l-1.968-1.847l7.808-8.081c0.389-0.403,0.379-1.044-0.024-1.433
			c-0.402-0.388-1.042-0.376-1.43,0.026l-7.83,8.103l-1.855-1.739l7.857-8.13c0.388-0.403,0.376-1.044-0.026-1.432
			c-0.4-0.389-1.042-0.377-1.43,0.025l-7.877,8.151l-1.805-1.694l8.511-8.81c0.389-0.402,0.379-1.042-0.024-1.43
			c-0.401-0.389-1.042-0.378-1.431,0.024l-9.795,10.138c-2.504,2.59-2.186,6.267,0.739,9.572l-5.569,5.85
			c-0.388,0.402-0.376,1.042,0.026,1.43c0.162,0.156,0.361,0.248,0.569,0.276c0.307,0.042,0.629-0.06,0.862-0.3l5.573-5.854
			c1.163,0.907,2.524,1.488,3.937,1.676c0.182,0.025,0.366,0.042,0.551,0.054c1.842,0.112,3.509-0.458,4.573-1.558
			c0.679-0.704,1.642-1.744,2.858-3.06c1.866-2.019,4.186-4.53,6.672-7.102C-19.4-308.061-19.412-308.701-19.814-309.089
			 M-33.771-297.96c-1.423-0.086-2.809-0.714-3.901-1.769c-2.137-2.065-3.642-5.066-1.572-7.377l8.598,8.068
			c-0.044,0.047-0.086,0.091-0.129,0.135C-31.418-298.237-32.538-297.885-33.771-297.96"/>
	</defs>
	<clipPath id="SVGID_60_">
		<use xlink:href="#SVGID_58_"  overflow="visible"/>
	</clipPath>
	<g clip-path="url(#SVGID_60_)">
		<defs>
			<rect id="SVGID_61_" x="-224.654" y="-388" width="352" height="310"/>
		</defs>
		<clipPath id="SVGID_62_">
			<use xlink:href="#SVGID_61_"  overflow="visible"/>
		</clipPath>
		<rect x="-50.693" y="-324.089" clip-path="url(#SVGID_62_)" fill="#220E00" width="36.189" height="37.584"/>
	</g>
</g>
<g>
	<defs>
		<path id="SVGID_63_" d="M-69.103-317.492c-0.439,0.459-0.688,1.117,0.384,4.983c0.641,2.314,5.485,15.183,7.112,18.873
			c3.313,7.505,5.269,7.191,6.399,7.3c0.55,0.053,1.081-0.093,1.533-0.424c1.229-0.9,1.641-1.164,2.117-1.469
			c0.168-0.106,0.346-0.22,0.569-0.368c1.432,2.183,3.222,5.586,4.959,8.889c2.339,4.445,4.758,9.042,6.648,11.4
			c1.201,1.499,2.462,1.911,3.309,1.992c1.619,0.155,3.26-0.763,4.18-2.339c0.931-1.601,0.905-3.46-0.072-4.856
			c-2.008-2.873-31.227-38.874-35.592-43.806C-68.164-318-68.851-317.759-69.103-317.492 M-33.643-269.676
			c-0.522,0.897-1.401,1.424-2.237,1.344c-0.657-0.062-1.322-0.492-1.923-1.242c-1.769-2.206-4.141-6.715-6.435-11.077
			c-2.095-3.983-4.076-7.745-5.666-9.942c-0.177-0.246-0.444-0.387-0.723-0.414c-0.23-0.022-0.468,0.034-0.673,0.176
			c-0.665,0.46-2.289,1.502-3.571,2.436c-0.059,0.043-0.093,0.049-0.145,0.045c-0.682,0.381-0.743-0.145-1.965-1.697
			c-1.969-2.5-7.78-17.365-9.478-22.254c-0.661-1.896,0.01-0.862,0.498-0.274c5.271,6.348,30.387,37.434,32.339,40.225
			C-33.003-271.466-33.226-270.388-33.643-269.676"/>
	</defs>
	<clipPath id="SVGID_64_">
		<use xlink:href="#SVGID_63_"  overflow="visible"/>
	</clipPath>
	<g clip-path="url(#SVGID_64_)">
		<defs>
			<rect id="SVGID_65_" x="-224.654" y="-388" width="352" height="310"/>
		</defs>
		<clipPath id="SVGID_66_">
			<use xlink:href="#SVGID_65_"  overflow="visible"/>
		</clipPath>
		<rect x="-74.479" y="-322.761" clip-path="url(#SVGID_66_)" fill="#220E00" width="48.266" height="61.462"/>
	</g>
</g>
<g>
	<defs>
		<path id="SVGID_67_" d="M-46.684-283.955c-0.431-0.357-1.069-0.3-1.426,0.131c-3.923,4.711-11.049,13.039-13.47,15.331
			c-1.204,1.139-3.168,0.758-4.25-0.313c-1.129-1.119-1.013-2.586,0.322-4.027c3.393-3.655,6.9-6.352,10.699-9.415
			c0.436-0.351,0.504-0.988,0.154-1.423c-0.352-0.436-0.988-0.503-1.423-0.154c-3.85,3.103-7.433,5.865-10.912,9.616
			c-2.536,2.733-1.727,5.394-0.263,6.842c0.826,0.817,1.977,1.388,3.186,1.548c1.344,0.18,2.761-0.147,3.878-1.206
			c2.798-2.646,10.791-12.091,13.634-15.505C-46.196-282.959-46.255-283.597-46.684-283.955"/>
	</defs>
	<clipPath id="SVGID_68_">
		<use xlink:href="#SVGID_67_"  overflow="visible"/>
	</clipPath>
	<g clip-path="url(#SVGID_68_)">
		<defs>
			<rect id="SVGID_69_" x="-224.654" y="-388" width="352" height="310"/>
		</defs>
		<clipPath id="SVGID_70_">
			<use xlink:href="#SVGID_69_"  overflow="visible"/>
		</clipPath>
		<rect x="-73.628" y="-289.189" clip-path="url(#SVGID_70_)" fill="#220E00" width="32.309" height="28.417"/>
	</g>
</g>
<g>
	<defs>
		<path id="SVGID_71_" d="M-24.021-170.587c0-2.796-0.666-5.537-1.927-7.929c-0.152-0.289-0.451-0.468-0.777-0.468h-15.462
			c0.512-2.736,0.772-5.913,0.772-9.457c0-0.485-0.394-0.878-0.878-0.878h-30.943c-0.484,0-0.878,0.393-0.878,0.878
			c0,8.841,1.546,15.061,4.725,19.019c2.545,3.168,6.067,4.803,10.746,4.982v20.035h-6.182c-0.484,0-0.878,0.393-0.878,0.878
			c0,0.484,0.394,0.878,0.878,0.878h14.12c0.485,0,0.878-0.394,0.878-0.878c0-0.485-0.393-0.878-0.878-0.878h-6.182v-20.036
			c2.271-0.086,4.245-0.513,5.993-1.294c1.724,5.897,6.502,10.245,12.214,10.652v10.678h-6.181c-0.486,0-0.878,0.393-0.878,0.878
			c0,0.484,0.392,0.878,0.878,0.878h14.119c0.484,0,0.878-0.394,0.878-0.878c0-0.485-0.394-0.878-0.878-0.878h-6.182v-10.678
			C-29.733-155.596-24.021-162.352-24.021-170.587z M-25.812-171.626h-23.979c0.128-1.967,0.623-3.879,1.452-5.603h21.074
			C-26.436-175.505-25.941-173.593-25.812-171.626z M-43.177-187.563c-0.024,1.892-0.127,3.668-0.306,5.313h-28.56
			c-0.178-1.608-0.285-3.373-0.31-5.313H-43.177z M-57.765-166.179c-5.31,0-12.103-1.657-14.049-14.315h28.103
			c-0.079,0.518-0.166,1.021-0.263,1.51h-4.905c-0.326,0-0.625,0.179-0.777,0.468c-1.261,2.392-1.926,5.133-1.926,7.929
			c0,1.064,0.095,2.103,0.276,3.108C-53.115-166.605-55.232-166.179-57.765-166.179z M-49.811-169.87h24.018
			c-0.327,7.267-5.588,13.063-12.009,13.063S-49.484-162.603-49.811-169.87z"/>
	</defs>
	<clipPath id="SVGID_72_">
		<use xlink:href="#SVGID_71_"  overflow="visible"/>
	</clipPath>
	<g clip-path="url(#SVGID_72_)">
		<defs>
			<rect id="SVGID_73_" x="-224.654" y="-388" width="352" height="310"/>
		</defs>
		<clipPath id="SVGID_74_">
			<use xlink:href="#SVGID_73_"  overflow="visible"/>
		</clipPath>
		<rect x="-79.114" y="-194.319" clip-path="url(#SVGID_74_)" fill="#220E00" width="60.093" height="56.67"/>
	</g>
</g>
<g>
	<defs>
		<path id="SVGID_75_" d="M-150.212-241.416c6.877,0,11.854,4.814,11.854,11.46c0,6.614-5.01,11.461-11.952,11.461h-9.299v-22.921
			H-150.212z M-155.745-221.965h5.632c4.453,0,7.858-3.309,7.858-7.959c0-4.681-3.503-8.02-8.022-8.02h-5.468V-221.965z"/>
	</defs>
	<clipPath id="SVGID_76_">
		<use xlink:href="#SVGID_75_"  overflow="visible"/>
	</clipPath>
	<g clip-path="url(#SVGID_76_)">
		<defs>
			<rect id="SVGID_77_" x="-224.654" y="-388" width="352" height="310"/>
		</defs>
		<clipPath id="SVGID_78_">
			<use xlink:href="#SVGID_77_"  overflow="visible"/>
		</clipPath>
		<rect x="-164.609" y="-246.416" clip-path="url(#SVGID_78_)" fill="#220E00" width="31.251" height="32.921"/>
	</g>
</g>
<g>
	<defs>
		<rect id="SVGID_79_" x="-159.654" y="-345" width="222.269" height="225.73"/>
	</defs>
	<clipPath id="SVGID_80_">
		<use xlink:href="#SVGID_79_"  overflow="visible"/>
	</clipPath>
	<g clip-path="url(#SVGID_80_)">
		<defs>
			<rect id="SVGID_81_" x="-224.654" y="-388" width="352" height="310"/>
		</defs>
		<clipPath id="SVGID_82_">
			<use xlink:href="#SVGID_81_"  overflow="visible"/>
		</clipPath>
		<g clip-path="url(#SVGID_82_)" enable-background="new    ">
			<g>
				<defs>
					<rect id="SVGID_83_" x="-124.654" y="-242" width="188" height="24"/>
				</defs>
				<clipPath id="SVGID_84_">
					<use xlink:href="#SVGID_83_"  overflow="visible"/>
				</clipPath>
				<g clip-path="url(#SVGID_84_)">
					<defs>
						<rect id="SVGID_85_" x="-124.41" y="-241.416" width="3.863" height="22.921"/>
					</defs>
					<clipPath id="SVGID_86_">
						<use xlink:href="#SVGID_85_"  overflow="visible"/>
					</clipPath>
					<g clip-path="url(#SVGID_86_)">
						<defs>
							<rect id="SVGID_87_" x="-159.654" y="-345" width="223" height="226"/>
						</defs>
						<clipPath id="SVGID_88_">
							<use xlink:href="#SVGID_87_"  overflow="visible"/>
						</clipPath>
						<rect x="-129.41" y="-246.416" clip-path="url(#SVGID_88_)" fill="#220E00" width="13.863" height="32.921"/>
					</g>
				</g>
				<g clip-path="url(#SVGID_84_)">
					<defs>
						<polygon id="SVGID_89_" points="-88.623,-218.495 -100.837,-234.932 -100.837,-218.495 -104.7,-218.495 -104.7,-241.416 
							-100.902,-241.416 -88.623,-224.945 -88.623,-241.416 -84.825,-241.416 -84.825,-218.495 						"/>
					</defs>
					<clipPath id="SVGID_90_">
						<use xlink:href="#SVGID_89_"  overflow="visible"/>
					</clipPath>
					<g clip-path="url(#SVGID_90_)">
						<defs>
							<rect id="SVGID_91_" x="-159.654" y="-345" width="223" height="226"/>
						</defs>
						<clipPath id="SVGID_92_">
							<use xlink:href="#SVGID_91_"  overflow="visible"/>
						</clipPath>
						<rect x="-109.7" y="-246.416" clip-path="url(#SVGID_92_)" fill="#220E00" width="29.875" height="32.921"/>
					</g>
				</g>
				<g clip-path="url(#SVGID_84_)">
					<defs>
						<polygon id="SVGID_93_" points="-65.082,-237.944 -65.082,-231.757 -53.884,-231.757 -53.884,-228.285 -65.082,-228.285 
							-65.082,-221.965 -52.18,-221.965 -52.18,-218.495 -68.945,-218.495 -68.945,-241.416 -52.573,-241.416 -52.573,-237.944 
													"/>
					</defs>
					<clipPath id="SVGID_94_">
						<use xlink:href="#SVGID_93_"  overflow="visible"/>
					</clipPath>
					<g clip-path="url(#SVGID_94_)">
						<defs>
							<rect id="SVGID_95_" x="-159.654" y="-345" width="223" height="226"/>
						</defs>
						<clipPath id="SVGID_96_">
							<use xlink:href="#SVGID_95_"  overflow="visible"/>
						</clipPath>
						<rect x="-73.945" y="-246.416" clip-path="url(#SVGID_96_)" fill="#220E00" width="26.765" height="32.921"/>
					</g>
				</g>
				<g clip-path="url(#SVGID_84_)">
					<defs>
						<polygon id="SVGID_97_" points="-28.738,-227.565 -28.738,-233 -25.135,-233 -25.135,-227.565 -21.796,-227.565 
							-21.796,-224.127 -25.135,-224.127 -25.135,-218.495 -28.738,-218.495 -28.738,-224.127 -39.674,-224.127 -39.674,-227.008 
							-31.848,-241.416 -28.115,-241.416 -35.548,-227.565 						"/>
					</defs>
					<clipPath id="SVGID_98_">
						<use xlink:href="#SVGID_97_"  overflow="visible"/>
					</clipPath>
					<g clip-path="url(#SVGID_98_)">
						<defs>
							<rect id="SVGID_99_" x="-159.654" y="-345" width="223" height="226"/>
						</defs>
						<clipPath id="SVGID_100_">
							<use xlink:href="#SVGID_99_"  overflow="visible"/>
						</clipPath>
						<rect x="-44.674" y="-246.416" clip-path="url(#SVGID_100_)" fill="#220E00" width="27.878" height="32.921"/>
					</g>
				</g>
				<g clip-path="url(#SVGID_84_)">
					<defs>
						<path id="SVGID_101_" d="M9.309-239.222l-1.604,3.406c-2.489-1.507-4.978-2.128-6.713-2.128c-2.26,0-3.733,0.85-3.733,2.389
							c0,5.01,12.378,2.325,12.345,10.577c0,4.092-3.602,6.614-8.645,6.614c-3.602,0-7.008-1.473-9.364-3.634l1.67-3.341
							c2.357,2.161,5.303,3.341,7.759,3.341c2.686,0,4.29-1.016,4.29-2.784c0-5.108-12.377-2.259-12.377-10.413
							c0-3.929,3.372-6.385,8.35-6.385C4.267-241.58,7.181-240.63,9.309-239.222"/>
					</defs>
					<clipPath id="SVGID_102_">
						<use xlink:href="#SVGID_101_"  overflow="visible"/>
					</clipPath>
					<g clip-path="url(#SVGID_102_)">
						<defs>
							<rect id="SVGID_103_" x="-159.654" y="-345" width="223" height="226"/>
						</defs>
						<clipPath id="SVGID_104_">
							<use xlink:href="#SVGID_103_"  overflow="visible"/>
						</clipPath>
						<rect x="-13.405" y="-246.58" clip-path="url(#SVGID_104_)" fill="#220E00" width="28.009" height="33.216"/>
					</g>
				</g>
				<g clip-path="url(#SVGID_84_)">
					<defs>
						<rect id="SVGID_105_" x="23.944" y="-241.416" width="3.864" height="22.921"/>
					</defs>
					<clipPath id="SVGID_106_">
						<use xlink:href="#SVGID_105_"  overflow="visible"/>
					</clipPath>
					<g clip-path="url(#SVGID_106_)">
						<defs>
							<rect id="SVGID_107_" x="-159.654" y="-345" width="223" height="226"/>
						</defs>
						<clipPath id="SVGID_108_">
							<use xlink:href="#SVGID_107_"  overflow="visible"/>
						</clipPath>
						<rect x="18.944" y="-246.416" clip-path="url(#SVGID_108_)" fill="#220E00" width="13.864" height="32.921"/>
					</g>
				</g>
				<g clip-path="url(#SVGID_84_)">
					<defs>
						<polygon id="SVGID_109_" points="62.615,-218.495 57.998,-218.495 51.809,-227.14 45.653,-218.495 41.134,-218.495 
							49.484,-230.25 41.722,-241.416 46.209,-241.416 51.809,-233.459 57.441,-241.416 61.96,-241.416 54.265,-230.413 						"/>
					</defs>
					<clipPath id="SVGID_110_">
						<use xlink:href="#SVGID_109_"  overflow="visible"/>
					</clipPath>
					<g clip-path="url(#SVGID_110_)">
						<defs>
							<rect id="SVGID_111_" x="-159.654" y="-345" width="223" height="226"/>
						</defs>
						<clipPath id="SVGID_112_">
							<use xlink:href="#SVGID_111_"  overflow="visible"/>
						</clipPath>
						<rect x="36.134" y="-246.416" clip-path="url(#SVGID_112_)" fill="#220E00" width="31.481" height="32.921"/>
					</g>
				</g>
			</g>
		</g>
	</g>
</g>
<g>
	<defs>
		<rect id="SVGID_113_" x="266.346" y="-378" width="221.177" height="90.428"/>
	</defs>
	<clipPath id="SVGID_114_">
		<use xlink:href="#SVGID_113_"  overflow="visible"/>
	</clipPath>
	<g clip-path="url(#SVGID_114_)">
		<defs>
			<rect id="SVGID_115_" x="206.346" y="-416" width="352" height="389"/>
		</defs>
		<clipPath id="SVGID_116_">
			<use xlink:href="#SVGID_115_"  overflow="visible"/>
		</clipPath>
		<g clip-path="url(#SVGID_116_)" enable-background="new    ">
			<g>
				<defs>
					<rect id="SVGID_117_" x="266.346" y="-378" width="222" height="91"/>
				</defs>
				<clipPath id="SVGID_118_">
					<use xlink:href="#SVGID_117_"  overflow="visible"/>
				</clipPath>
				<g clip-path="url(#SVGID_118_)">
					<defs>
						<path id="SVGID_119_" d="M269.43-287.572c10.386-49.828,54.638-87.378,107.502-87.378c52.626,0,96.705,37.217,107.348,86.708
							c1.069-0.129,2.212,0.045,3.243,0.512C477.028-339.174,431.43-378,376.932-378c-54.49,0-100.084,38.817-110.586,90.251
							C267.388-288.11,268.461-288.015,269.43-287.572"/>
					</defs>
					<clipPath id="SVGID_120_">
						<use xlink:href="#SVGID_119_"  overflow="visible"/>
					</clipPath>
					<g clip-path="url(#SVGID_120_)">
						<defs>
							<rect id="SVGID_121_" x="266.346" y="-378" width="222" height="91"/>
						</defs>
						<clipPath id="SVGID_122_">
							<use xlink:href="#SVGID_121_"  overflow="visible"/>
						</clipPath>
						<rect x="261.346" y="-383" clip-path="url(#SVGID_122_)" fill="#220E00" width="231.177" height="100.428"/>
					</g>
				</g>
			</g>
		</g>
	</g>
</g>
<g>
	<defs>
		<rect id="SVGID_123_" x="267.632" y="-237.455" width="218.642" height="85.185"/>
	</defs>
	<clipPath id="SVGID_124_">
		<use xlink:href="#SVGID_123_"  overflow="visible"/>
	</clipPath>
	<g clip-path="url(#SVGID_124_)">
		<defs>
			<rect id="SVGID_125_" x="206.346" y="-416" width="352" height="389"/>
		</defs>
		<clipPath id="SVGID_126_">
			<use xlink:href="#SVGID_125_"  overflow="visible"/>
		</clipPath>
		<g clip-path="url(#SVGID_126_)" enable-background="new    ">
			<g>
				<defs>
					<rect id="SVGID_127_" x="267.346" y="-238" width="219" height="86"/>
				</defs>
				<clipPath id="SVGID_128_">
					<use xlink:href="#SVGID_127_"  overflow="visible"/>
				</clipPath>
				<g clip-path="url(#SVGID_128_)">
					<defs>
						<path id="SVGID_129_" d="M483.169-237.455c-12.305,47.188-55.248,82.135-106.237,82.135
							c-50.936,0-93.874-34.863-106.23-81.978c-0.988,0.405-2.064,0.534-3.07,0.356c12.553,48.636,56.797,84.673,109.3,84.673
							c52.632,0,96.916-36.233,109.342-85.051C485.261-237.176,484.211-237.225,483.169-237.455"/>
					</defs>
					<clipPath id="SVGID_130_">
						<use xlink:href="#SVGID_129_"  overflow="visible"/>
					</clipPath>
					<g clip-path="url(#SVGID_130_)">
						<defs>
							<rect id="SVGID_131_" x="267.346" y="-238" width="219" height="86"/>
						</defs>
						<clipPath id="SVGID_132_">
							<use xlink:href="#SVGID_131_"  overflow="visible"/>
						</clipPath>
						<rect x="262.632" y="-242.455" clip-path="url(#SVGID_132_)" fill="#220E00" width="228.642" height="95.186"/>
					</g>
				</g>
			</g>
		</g>
	</g>
</g>
<g>
	<defs>
		<path id="SVGID_133_" d="M354.054-287.776c0.801,0,1.604,0.007,2.407,0.014l-45.559-45.56c-0.596-0.596-1.561-0.596-2.157,0
			s-0.596,1.561,0,2.157l43.662,43.661C352.905-287.664,353.441-287.776,354.054-287.776"/>
	</defs>
	<clipPath id="SVGID_134_">
		<use xlink:href="#SVGID_133_"  overflow="visible"/>
	</clipPath>
	<g clip-path="url(#SVGID_134_)">
		<defs>
			<rect id="SVGID_135_" x="206.346" y="-416" width="352" height="389"/>
		</defs>
		<clipPath id="SVGID_136_">
			<use xlink:href="#SVGID_135_"  overflow="visible"/>
		</clipPath>
		<rect x="303.298" y="-338.769" clip-path="url(#SVGID_136_)" fill="#220E00" width="58.163" height="56.265"/>
	</g>
</g>
<g>
	<defs>
		<path id="SVGID_137_" d="M445.12-199.104l-39.491-39.491c-1.317,0.243-2.684,0.334-3.999,0.314l41.333,41.334
			c0.298,0.298,0.688,0.447,1.078,0.447c0.391,0,0.781-0.149,1.079-0.447C445.716-197.544,445.716-198.508,445.12-199.104"/>
	</defs>
	<clipPath id="SVGID_138_">
		<use xlink:href="#SVGID_137_"  overflow="visible"/>
	</clipPath>
	<g clip-path="url(#SVGID_138_)">
		<defs>
			<rect id="SVGID_139_" x="206.346" y="-416" width="352" height="389"/>
		</defs>
		<clipPath id="SVGID_140_">
			<use xlink:href="#SVGID_139_"  overflow="visible"/>
		</clipPath>
		<rect x="396.63" y="-243.596" clip-path="url(#SVGID_140_)" fill="#220E00" width="53.937" height="52.095"/>
	</g>
</g>
<g>
	<defs>
		<path id="SVGID_141_" d="M347.035-237.395l-38.29,38.29c-0.596,0.596-0.596,1.561,0,2.157c0.298,0.298,0.688,0.447,1.078,0.447
			c0.39,0,0.781-0.149,1.079-0.447l40.125-40.126C349.69-237.094,348.356-237.217,347.035-237.395"/>
	</defs>
	<clipPath id="SVGID_142_">
		<use xlink:href="#SVGID_141_"  overflow="visible"/>
	</clipPath>
	<g clip-path="url(#SVGID_142_)">
		<defs>
			<rect id="SVGID_143_" x="206.346" y="-416" width="352" height="389"/>
		</defs>
		<clipPath id="SVGID_144_">
			<use xlink:href="#SVGID_143_"  overflow="visible"/>
		</clipPath>
		<rect x="303.298" y="-242.395" clip-path="url(#SVGID_144_)" fill="#220E00" width="52.729" height="50.894"/>
	</g>
</g>
<g>
	<defs>
		<path id="SVGID_145_" d="M445.12-333.322c-0.596-0.596-1.561-0.596-2.157,0l-45.32,45.32c1.177,0.184,2.342,0.462,3.497,0.817
			l43.98-43.98C445.716-331.761,445.716-332.726,445.12-333.322"/>
	</defs>
	<clipPath id="SVGID_146_">
		<use xlink:href="#SVGID_145_"  overflow="visible"/>
	</clipPath>
	<g clip-path="url(#SVGID_146_)">
		<defs>
			<rect id="SVGID_147_" x="206.346" y="-416" width="352" height="389"/>
		</defs>
		<clipPath id="SVGID_148_">
			<use xlink:href="#SVGID_147_"  overflow="visible"/>
		</clipPath>
		<rect x="392.643" y="-338.769" clip-path="url(#SVGID_148_)" fill="#220E00" width="57.924" height="56.584"/>
	</g>
</g>
<g>
	<defs>
		<path id="SVGID_149_" d="M406.186-342.089c-0.401-0.389-1.042-0.379-1.431,0.024c-2.501,2.588-4.83,5.108-6.702,7.133
			c-0.478,0.518-0.916,0.992-1.314,1.418l-1.968-1.847l7.808-8.081c0.389-0.403,0.379-1.044-0.024-1.433
			c-0.402-0.388-1.042-0.376-1.43,0.026l-7.83,8.103l-1.855-1.739l7.857-8.13c0.388-0.403,0.376-1.044-0.026-1.432
			c-0.4-0.389-1.042-0.377-1.43,0.025l-7.877,8.151l-1.805-1.694l8.511-8.81c0.389-0.402,0.379-1.042-0.024-1.43
			c-0.401-0.389-1.042-0.378-1.431,0.024l-9.795,10.138c-2.504,2.59-2.186,6.267,0.739,9.572l-5.569,5.85
			c-0.388,0.402-0.376,1.042,0.026,1.43c0.162,0.156,0.361,0.248,0.569,0.276c0.307,0.042,0.629-0.06,0.862-0.3l5.573-5.854
			c1.163,0.907,2.524,1.488,3.937,1.676c0.182,0.025,0.366,0.042,0.551,0.054c1.842,0.112,3.509-0.458,4.573-1.558
			c0.679-0.704,1.642-1.744,2.858-3.06c1.866-2.019,4.186-4.53,6.672-7.102C406.6-341.061,406.588-341.701,406.186-342.089
			 M392.229-330.96c-1.423-0.086-2.809-0.714-3.901-1.769c-2.137-2.065-3.642-5.066-1.572-7.377l8.598,8.068
			c-0.044,0.047-0.086,0.091-0.129,0.135C394.582-331.237,393.462-330.885,392.229-330.96"/>
	</defs>
	<clipPath id="SVGID_150_">
		<use xlink:href="#SVGID_149_"  overflow="visible"/>
	</clipPath>
	<g clip-path="url(#SVGID_150_)">
		<defs>
			<rect id="SVGID_151_" x="206.346" y="-416" width="352" height="389"/>
		</defs>
		<clipPath id="SVGID_152_">
			<use xlink:href="#SVGID_151_"  overflow="visible"/>
		</clipPath>
		<rect x="375.307" y="-357.089" clip-path="url(#SVGID_152_)" fill="#220E00" width="36.189" height="37.584"/>
	</g>
</g>
<g>
	<defs>
		<path id="SVGID_153_" d="M356.897-350.492c-0.439,0.459-0.688,1.117,0.384,4.983c0.641,2.314,5.485,15.183,7.112,18.873
			c3.313,7.505,5.269,7.191,6.399,7.3c0.55,0.053,1.081-0.093,1.533-0.424c1.229-0.9,1.641-1.164,2.117-1.469
			c0.168-0.106,0.346-0.22,0.569-0.368c1.432,2.183,3.222,5.586,4.959,8.889c2.339,4.445,4.758,9.042,6.648,11.4
			c1.201,1.499,2.462,1.911,3.309,1.992c1.619,0.155,3.26-0.763,4.18-2.339c0.931-1.601,0.905-3.46-0.072-4.856
			c-2.008-2.873-31.227-38.874-35.592-43.806C357.836-351,357.149-350.759,356.897-350.492 M392.357-302.676
			c-0.522,0.897-1.401,1.424-2.237,1.344c-0.657-0.062-1.322-0.492-1.923-1.242c-1.769-2.206-4.141-6.715-6.435-11.077
			c-2.095-3.983-4.076-7.745-5.666-9.942c-0.177-0.246-0.444-0.387-0.723-0.414c-0.23-0.022-0.468,0.034-0.673,0.176
			c-0.665,0.46-2.289,1.502-3.571,2.436c-0.059,0.043-0.093,0.049-0.145,0.045c-0.682,0.381-0.743-0.145-1.965-1.697
			c-1.969-2.5-7.78-17.365-9.478-22.254c-0.661-1.896,0.01-0.862,0.498-0.274c5.271,6.348,30.387,37.434,32.339,40.225
			C392.997-304.466,392.774-303.388,392.357-302.676"/>
	</defs>
	<clipPath id="SVGID_154_">
		<use xlink:href="#SVGID_153_"  overflow="visible"/>
	</clipPath>
	<g clip-path="url(#SVGID_154_)">
		<defs>
			<rect id="SVGID_155_" x="206.346" y="-416" width="352" height="389"/>
		</defs>
		<clipPath id="SVGID_156_">
			<use xlink:href="#SVGID_155_"  overflow="visible"/>
		</clipPath>
		<rect x="351.521" y="-355.761" clip-path="url(#SVGID_156_)" fill="#220E00" width="48.266" height="61.462"/>
	</g>
</g>
<g>
	<defs>
		<path id="SVGID_157_" d="M379.316-316.955c-0.431-0.357-1.069-0.3-1.426,0.131c-3.923,4.711-11.049,13.039-13.47,15.331
			c-1.204,1.139-3.168,0.758-4.25-0.313c-1.129-1.119-1.013-2.586,0.322-4.027c3.393-3.655,6.9-6.352,10.699-9.415
			c0.436-0.351,0.504-0.988,0.154-1.423c-0.352-0.436-0.988-0.503-1.423-0.154c-3.85,3.103-7.433,5.865-10.912,9.616
			c-2.536,2.733-1.727,5.394-0.263,6.842c0.826,0.817,1.977,1.388,3.186,1.548c1.344,0.18,2.761-0.147,3.878-1.206
			c2.798-2.646,10.791-12.091,13.634-15.505C379.804-315.959,379.745-316.597,379.316-316.955"/>
	</defs>
	<clipPath id="SVGID_158_">
		<use xlink:href="#SVGID_157_"  overflow="visible"/>
	</clipPath>
	<g clip-path="url(#SVGID_158_)">
		<defs>
			<rect id="SVGID_159_" x="206.346" y="-416" width="352" height="389"/>
		</defs>
		<clipPath id="SVGID_160_">
			<use xlink:href="#SVGID_159_"  overflow="visible"/>
		</clipPath>
		<rect x="352.372" y="-322.189" clip-path="url(#SVGID_160_)" fill="#220E00" width="32.309" height="28.417"/>
	</g>
</g>
<g>
	<defs>
		<path id="SVGID_161_" d="M401.979-203.587c0-2.796-0.666-5.537-1.927-7.929c-0.152-0.289-0.451-0.468-0.777-0.468h-15.462
			c0.512-2.736,0.772-5.913,0.772-9.457c0-0.485-0.394-0.878-0.878-0.878h-30.943c-0.484,0-0.878,0.393-0.878,0.878
			c0,8.841,1.546,15.061,4.725,19.019c2.545,3.168,6.067,4.803,10.746,4.982v20.035h-6.182c-0.484,0-0.878,0.393-0.878,0.878
			c0,0.484,0.394,0.878,0.878,0.878h14.12c0.485,0,0.878-0.394,0.878-0.878c0-0.485-0.393-0.878-0.878-0.878h-6.182v-20.036
			c2.271-0.086,4.245-0.513,5.993-1.294c1.724,5.897,6.502,10.245,12.214,10.652v10.678h-6.181c-0.486,0-0.878,0.393-0.878,0.878
			c0,0.484,0.392,0.878,0.878,0.878h14.119c0.484,0,0.878-0.394,0.878-0.878c0-0.485-0.394-0.878-0.878-0.878h-6.182v-10.678
			C396.267-188.596,401.979-195.352,401.979-203.587z M400.188-204.626h-23.979c0.128-1.967,0.623-3.879,1.452-5.603h21.074
			C399.564-208.505,400.059-206.593,400.188-204.626z M382.823-220.563c-0.024,1.892-0.127,3.668-0.306,5.313h-28.56
			c-0.178-1.608-0.285-3.373-0.31-5.313H382.823z M368.235-199.179c-5.31,0-12.103-1.657-14.049-14.315h28.103
			c-0.079,0.518-0.166,1.021-0.263,1.51h-4.905c-0.326,0-0.625,0.179-0.777,0.468c-1.261,2.392-1.926,5.133-1.926,7.929
			c0,1.064,0.095,2.103,0.276,3.108C372.885-199.605,370.768-199.179,368.235-199.179z M376.189-202.87h24.018
			c-0.327,7.267-5.588,13.063-12.009,13.063S376.516-195.603,376.189-202.87z"/>
	</defs>
	<clipPath id="SVGID_162_">
		<use xlink:href="#SVGID_161_"  overflow="visible"/>
	</clipPath>
	<g clip-path="url(#SVGID_162_)">
		<defs>
			<rect id="SVGID_163_" x="206.346" y="-416" width="352" height="389"/>
		</defs>
		<clipPath id="SVGID_164_">
			<use xlink:href="#SVGID_163_"  overflow="visible"/>
		</clipPath>
		<rect x="346.886" y="-227.319" clip-path="url(#SVGID_164_)" fill="#220E00" width="60.093" height="56.67"/>
	</g>
</g>
<g>
	<defs>
		<path id="SVGID_165_" d="M275.788-274.416c6.877,0,11.854,4.814,11.854,11.46c0,6.614-5.01,11.461-11.952,11.461h-9.299v-22.921
			H275.788z M270.255-254.965h5.632c4.453,0,7.858-3.309,7.858-7.959c0-4.681-3.503-8.02-8.022-8.02h-5.468V-254.965z"/>
	</defs>
	<clipPath id="SVGID_166_">
		<use xlink:href="#SVGID_165_"  overflow="visible"/>
	</clipPath>
	<g clip-path="url(#SVGID_166_)">
		<defs>
			<rect id="SVGID_167_" x="206.346" y="-416" width="352" height="389"/>
		</defs>
		<clipPath id="SVGID_168_">
			<use xlink:href="#SVGID_167_"  overflow="visible"/>
		</clipPath>
		<rect x="261.391" y="-279.416" clip-path="url(#SVGID_168_)" fill="#220E00" width="31.251" height="32.921"/>
	</g>
</g>
<g>
	<defs>
		<rect id="SVGID_169_" x="266.346" y="-378" width="222.269" height="225.73"/>
	</defs>
	<clipPath id="SVGID_170_">
		<use xlink:href="#SVGID_169_"  overflow="visible"/>
	</clipPath>
	<g clip-path="url(#SVGID_170_)">
		<defs>
			<rect id="SVGID_171_" x="206.346" y="-416" width="352" height="389"/>
		</defs>
		<clipPath id="SVGID_172_">
			<use xlink:href="#SVGID_171_"  overflow="visible"/>
		</clipPath>
		<g clip-path="url(#SVGID_172_)" enable-background="new    ">
			<g>
				<defs>
					<rect id="SVGID_173_" x="301.346" y="-275" width="188" height="24"/>
				</defs>
				<clipPath id="SVGID_174_">
					<use xlink:href="#SVGID_173_"  overflow="visible"/>
				</clipPath>
				<g clip-path="url(#SVGID_174_)">
					<defs>
						<rect id="SVGID_175_" x="301.59" y="-274.416" width="3.863" height="22.921"/>
					</defs>
					<clipPath id="SVGID_176_">
						<use xlink:href="#SVGID_175_"  overflow="visible"/>
					</clipPath>
					<g clip-path="url(#SVGID_176_)">
						<defs>
							<rect id="SVGID_177_" x="266.346" y="-378" width="223" height="226"/>
						</defs>
						<clipPath id="SVGID_178_">
							<use xlink:href="#SVGID_177_"  overflow="visible"/>
						</clipPath>
						<rect x="296.59" y="-279.416" clip-path="url(#SVGID_178_)" fill="#220E00" width="13.863" height="32.921"/>
					</g>
				</g>
				<g clip-path="url(#SVGID_174_)">
					<defs>
						<polygon id="SVGID_179_" points="337.377,-251.495 325.163,-267.932 325.163,-251.495 321.3,-251.495 321.3,-274.416 
							325.098,-274.416 337.377,-257.945 337.377,-274.416 341.175,-274.416 341.175,-251.495 						"/>
					</defs>
					<clipPath id="SVGID_180_">
						<use xlink:href="#SVGID_179_"  overflow="visible"/>
					</clipPath>
					<g clip-path="url(#SVGID_180_)">
						<defs>
							<rect id="SVGID_181_" x="266.346" y="-378" width="223" height="226"/>
						</defs>
						<clipPath id="SVGID_182_">
							<use xlink:href="#SVGID_181_"  overflow="visible"/>
						</clipPath>
						<rect x="316.3" y="-279.416" clip-path="url(#SVGID_182_)" fill="#220E00" width="29.875" height="32.921"/>
					</g>
				</g>
				<g clip-path="url(#SVGID_174_)">
					<defs>
						<polygon id="SVGID_183_" points="360.918,-270.944 360.918,-264.757 372.116,-264.757 372.116,-261.285 360.918,-261.285 
							360.918,-254.965 373.82,-254.965 373.82,-251.495 357.055,-251.495 357.055,-274.416 373.427,-274.416 373.427,-270.944 
													"/>
					</defs>
					<clipPath id="SVGID_184_">
						<use xlink:href="#SVGID_183_"  overflow="visible"/>
					</clipPath>
					<g clip-path="url(#SVGID_184_)">
						<defs>
							<rect id="SVGID_185_" x="266.346" y="-378" width="223" height="226"/>
						</defs>
						<clipPath id="SVGID_186_">
							<use xlink:href="#SVGID_185_"  overflow="visible"/>
						</clipPath>
						<rect x="352.055" y="-279.416" clip-path="url(#SVGID_186_)" fill="#220E00" width="26.765" height="32.921"/>
					</g>
				</g>
				<g clip-path="url(#SVGID_174_)">
					<defs>
						<polygon id="SVGID_187_" points="397.262,-260.565 397.262,-266 400.865,-266 400.865,-260.565 404.204,-260.565 
							404.204,-257.127 400.865,-257.127 400.865,-251.495 397.262,-251.495 397.262,-257.127 386.326,-257.127 386.326,-260.008 
							394.152,-274.416 397.885,-274.416 390.452,-260.565 						"/>
					</defs>
					<clipPath id="SVGID_188_">
						<use xlink:href="#SVGID_187_"  overflow="visible"/>
					</clipPath>
					<g clip-path="url(#SVGID_188_)">
						<defs>
							<rect id="SVGID_189_" x="266.346" y="-378" width="223" height="226"/>
						</defs>
						<clipPath id="SVGID_190_">
							<use xlink:href="#SVGID_189_"  overflow="visible"/>
						</clipPath>
						<rect x="381.326" y="-279.416" clip-path="url(#SVGID_190_)" fill="#220E00" width="27.878" height="32.921"/>
					</g>
				</g>
				<g clip-path="url(#SVGID_174_)">
					<defs>
						<path id="SVGID_191_" d="M435.309-272.222l-1.604,3.406c-2.489-1.507-4.978-2.128-6.713-2.128c-2.26,0-3.733,0.85-3.733,2.389
							c0,5.01,12.378,2.325,12.345,10.577c0,4.092-3.602,6.614-8.645,6.614c-3.602,0-7.008-1.473-9.364-3.634l1.67-3.341
							c2.357,2.161,5.303,3.341,7.759,3.341c2.686,0,4.29-1.016,4.29-2.784c0-5.108-12.377-2.259-12.377-10.413
							c0-3.929,3.372-6.385,8.35-6.385C430.267-274.58,433.181-273.63,435.309-272.222"/>
					</defs>
					<clipPath id="SVGID_192_">
						<use xlink:href="#SVGID_191_"  overflow="visible"/>
					</clipPath>
					<g clip-path="url(#SVGID_192_)">
						<defs>
							<rect id="SVGID_193_" x="266.346" y="-378" width="223" height="226"/>
						</defs>
						<clipPath id="SVGID_194_">
							<use xlink:href="#SVGID_193_"  overflow="visible"/>
						</clipPath>
						<rect x="412.595" y="-279.58" clip-path="url(#SVGID_194_)" fill="#220E00" width="28.009" height="33.216"/>
					</g>
				</g>
				<g clip-path="url(#SVGID_174_)">
					<defs>
						<rect id="SVGID_195_" x="449.944" y="-274.416" width="3.864" height="22.921"/>
					</defs>
					<clipPath id="SVGID_196_">
						<use xlink:href="#SVGID_195_"  overflow="visible"/>
					</clipPath>
					<g clip-path="url(#SVGID_196_)">
						<defs>
							<rect id="SVGID_197_" x="266.346" y="-378" width="223" height="226"/>
						</defs>
						<clipPath id="SVGID_198_">
							<use xlink:href="#SVGID_197_"  overflow="visible"/>
						</clipPath>
						<rect x="444.944" y="-279.416" clip-path="url(#SVGID_198_)" fill="#220E00" width="13.864" height="32.921"/>
					</g>
				</g>
				<g clip-path="url(#SVGID_174_)">
					<defs>
						<polygon id="SVGID_199_" points="488.615,-251.495 483.998,-251.495 477.809,-260.14 471.653,-251.495 467.134,-251.495 
							475.484,-263.25 467.722,-274.416 472.209,-274.416 477.809,-266.459 483.441,-274.416 487.96,-274.416 480.265,-263.413 
													"/>
					</defs>
					<clipPath id="SVGID_200_">
						<use xlink:href="#SVGID_199_"  overflow="visible"/>
					</clipPath>
					<g clip-path="url(#SVGID_200_)">
						<defs>
							<rect id="SVGID_201_" x="266.346" y="-378" width="223" height="226"/>
						</defs>
						<clipPath id="SVGID_202_">
							<use xlink:href="#SVGID_201_"  overflow="visible"/>
						</clipPath>
						<rect x="462.134" y="-279.416" clip-path="url(#SVGID_202_)" fill="#220E00" width="31.481" height="32.921"/>
					</g>
				</g>
			</g>
		</g>
	</g>
</g>
<g>
	<defs>
		<path id="SVGID_203_" d="M512.247-92.929c-1.519,0-2.573,1.054-2.573,2.573c0,1.55,1.054,2.604,2.573,2.604
			s2.604-1.054,2.604-2.604C514.851-91.875,513.766-92.929,512.247-92.929z M506.884-92.619c-0.806,0.341-1.519,0.558-2.077,0.558
			c-0.992,0.031-1.55-0.527-1.55-1.829v-6.541h4.371v-3.534h-4.371v-4.619h-5.332v4.65H495.6v3.503h2.325v7.378
			c0,3.472,2.325,5.301,5.549,5.301c1.612,0,3.255-0.434,4.464-1.147L506.884-92.619z M484.626-91.379c1.674,0,3.1-0.93,3.441-2.294
			v-1.488h-3.379c-1.612,0-2.418,0.558-2.418,1.798C482.27-92.154,483.138-91.379,484.626-91.379z M486.052-104.957
			c4.588,0,7.254,2.263,7.285,6.045V-88h-5.239v-1.922c-1.085,1.426-2.852,2.17-5.115,2.17c-3.565,0-5.735-2.17-5.735-5.239
			c0-3.162,2.263-5.022,6.417-5.053h4.402v-0.248c0-1.643-1.085-2.635-3.255-2.635c-1.395,0-3.224,0.496-4.991,1.395l-1.519-3.534
			C480.906-104.275,483.262-104.957,486.052-104.957z M474.675-105.36v-4.34h-16.988V-88h17.329v-4.34h-11.811v-4.371h10.354v-4.34
			h-10.354v-4.309H474.675z M444.543-92.929c-1.519,0-2.573,1.054-2.573,2.573c0,1.55,1.054,2.604,2.573,2.604
			c1.519,0,2.604-1.054,2.604-2.604C447.147-91.875,446.062-92.929,444.543-92.929z M428.175-97.796h6.696
			c0-2.046-1.302-3.379-3.224-3.379C429.787-101.175,428.516-99.811,428.175-97.796z M431.585-104.895
			c5.89,0,8.804,3.875,8.432,9.982h-11.749c0.527,1.984,1.953,3.1,3.937,3.1c1.457,0,2.883-0.589,3.999-1.705l2.821,2.759
			c-1.705,1.86-4.216,2.945-7.285,2.945c-5.456,0-8.866-3.41-8.866-8.494C422.874-101.485,426.408-104.895,431.585-104.895z
			 M419.836-88v-23.002h-5.363V-88H419.836z M401.422-92.774c2.077,0,3.472-1.674,3.472-4.061c0-2.449-1.395-4.092-3.472-4.092
			c-2.108,0-3.534,1.674-3.534,4.092C397.888-94.448,399.314-92.774,401.422-92.774z M410.226-104.709v15.19
			c0,4.743-3.658,7.75-9.052,7.75c-2.914,0-5.549-0.93-7.44-2.201l1.86-3.627c1.519,1.054,3.379,1.674,5.177,1.674
			c2.573,0,4.123-1.364,4.123-3.441v-1.767c-1.085,1.426-2.728,2.232-4.805,2.232c-4.216,0-7.192-3.224-7.192-8.091
			c0-4.743,2.883-7.905,7.068-7.905c2.139-0.031,3.813,0.775,4.929,2.232v-2.046H410.226z M384.341-104.957
			c-2.48,0.031-4.402,1.023-5.58,2.976v-2.728h-5.363V-88h5.363v-8.835c0.217-1.984,1.457-3.379,3.41-3.379
			c1.798,0,2.945,1.209,2.945,3.162V-88h5.332v-10.54C390.448-102.446,388.03-104.957,384.341-104.957z M369.089-88v-16.709h-5.332
			V-88H369.089z M366.454-112.335c-1.643,0-2.821,1.178-2.821,2.821c0,1.674,1.178,2.852,2.821,2.852s2.821-1.178,2.821-2.852
			C369.275-111.157,368.097-112.335,366.454-112.335z M359.417-88v-21.731h-6.014l-5.89,12.927l-5.89-12.927h-6.045V-88h4.929
			v-14.105l5.208,11.935h3.596l5.208-11.935L354.55-88H359.417z M322.434-92.929c-1.519,0-2.573,1.054-2.573,2.573
			c0,1.55,1.054,2.604,2.573,2.604c1.519,0,2.604-1.054,2.604-2.604C325.038-91.875,323.953-92.929,322.434-92.929z M317.071-92.619
			c-0.806,0.341-1.519,0.558-2.077,0.558c-0.992,0.031-1.55-0.527-1.55-1.829v-6.541h4.371v-3.534h-4.371v-4.619h-5.332v4.65h-2.325
			v3.503h2.325v7.378c0,3.472,2.325,5.301,5.549,5.301c1.612,0,3.255-0.434,4.464-1.147L317.071-92.619z M292.581-97.796h6.696
			c0-2.046-1.302-3.379-3.224-3.379C294.193-101.175,292.922-99.811,292.581-97.796z M295.991-104.895
			c5.89,0,8.804,3.875,8.432,9.982h-11.749c0.527,1.984,1.953,3.1,3.937,3.1c1.457,0,2.883-0.589,3.999-1.705l2.821,2.759
			c-1.705,1.86-4.216,2.945-7.285,2.945c-5.456,0-8.866-3.41-8.866-8.494C287.28-101.485,290.814-104.895,295.991-104.895z
			 M273.919-97.796h6.696c0-2.046-1.302-3.379-3.224-3.379C275.531-101.175,274.26-99.811,273.919-97.796z M277.329-104.895
			c5.89,0,8.804,3.875,8.432,9.982h-11.749c0.527,1.984,1.953,3.1,3.937,3.1c1.457,0,2.883-0.589,3.999-1.705l2.821,2.759
			c-1.705,1.86-4.216,2.945-7.285,2.945c-5.456,0-8.866-3.41-8.866-8.494C268.618-101.485,272.152-104.895,277.329-104.895z
			 M265.673-88v-21.731h-6.014l-5.89,12.927l-5.89-12.927h-6.045V-88h4.929v-14.105l5.208,11.935h3.596l5.208-11.935L260.806-88
			H265.673z"/>
	</defs>
	<clipPath id="SVGID_204_">
		<use xlink:href="#SVGID_203_"  overflow="visible"/>
	</clipPath>
	<g clip-path="url(#SVGID_204_)">
		<defs>
			<rect id="SVGID_205_" x="206.346" y="-416" width="352" height="389"/>
		</defs>
		<clipPath id="SVGID_206_">
			<use xlink:href="#SVGID_205_"  overflow="visible"/>
		</clipPath>
		<rect x="236.834" y="-117.335" clip-path="url(#SVGID_206_)" fill="#220E00" width="283.017" height="40.566"/>
	</g>
</g>
<g>
	<defs>
		<rect id="SVGID_33_" x="56.738" y="10.121" width="2.443" height="14.494"/>
	</defs>
	<use xlink:href="#SVGID_33_"  overflow="visible" fill-rule="evenodd" clip-rule="evenodd" fill="#FFFFFF"/>
	<clipPath id="SVGID_207_">
		<use xlink:href="#SVGID_33_"  overflow="visible"/>
	</clipPath>
	<g clip-path="url(#SVGID_207_)">
		<defs>
			<rect id="SVGID_35_" x="34.452" y="-55.379" width="141.01" height="142.907"/>
		</defs>
		<use xlink:href="#SVGID_35_"  overflow="visible" fill="#FFFFFF"/>
		<clipPath id="SVGID_208_">
			<use xlink:href="#SVGID_35_"  overflow="visible"/>
		</clipPath>
		<rect x="53.576" y="6.959" clip-path="url(#SVGID_208_)" fill="#FFFFFF" width="8.766" height="20.817"/>
	</g>
</g>
<g>
	<defs>
		<polygon id="SVGID_37_" points="79.367,24.614 71.644,14.221 71.644,24.614 69.201,24.614 69.201,10.121 71.603,10.121 
			79.367,20.536 79.367,10.121 81.769,10.121 81.769,24.614 		"/>
	</defs>
	<use xlink:href="#SVGID_37_"  overflow="visible" fill-rule="evenodd" clip-rule="evenodd" fill="#FFFFFF"/>
	<clipPath id="SVGID_209_">
		<use xlink:href="#SVGID_37_"  overflow="visible"/>
	</clipPath>
	<g clip-path="url(#SVGID_209_)">
		<defs>
			<rect id="SVGID_39_" x="34.452" y="-55.379" width="141.01" height="142.907"/>
		</defs>
		<use xlink:href="#SVGID_39_"  overflow="visible" fill="#FFFFFF"/>
		<clipPath id="SVGID_210_">
			<use xlink:href="#SVGID_39_"  overflow="visible"/>
		</clipPath>
		<rect x="66.04" y="6.959" clip-path="url(#SVGID_210_)" fill="#FFFFFF" width="18.891" height="20.817"/>
	</g>
</g>
<g>
	<defs>
		<polygon id="SVGID_41_" points="94.253,12.316 94.253,16.228 101.334,16.228 101.334,18.424 94.253,18.424 94.253,22.42 
			102.411,22.42 102.411,24.614 91.81,24.614 91.81,10.12 102.163,10.12 102.163,12.316 		"/>
	</defs>
	<use xlink:href="#SVGID_41_"  overflow="visible" fill-rule="evenodd" clip-rule="evenodd" fill="#FFFFFF"/>
	<clipPath id="SVGID_211_">
		<use xlink:href="#SVGID_41_"  overflow="visible"/>
	</clipPath>
	<g clip-path="url(#SVGID_211_)">
		<defs>
			<rect id="SVGID_43_" x="34.452" y="-55.379" width="141.01" height="142.907"/>
		</defs>
		<use xlink:href="#SVGID_43_"  overflow="visible" fill="#FFFFFF"/>
		<clipPath id="SVGID_212_">
			<use xlink:href="#SVGID_43_"  overflow="visible"/>
		</clipPath>
		<rect x="88.648" y="6.959" clip-path="url(#SVGID_212_)" fill="#FFFFFF" width="16.924" height="20.817"/>
	</g>
</g>
<g>
	<defs>
		<polygon id="SVGID_45_" points="117.234,18.879 117.234,15.442 119.513,15.442 119.513,18.879 121.624,18.879 121.624,21.053 
			119.513,21.053 119.513,24.614 117.234,24.614 117.234,21.053 110.319,21.053 110.319,19.231 115.268,10.12 117.628,10.12 
			112.928,18.879 		"/>
	</defs>
	<use xlink:href="#SVGID_45_"  overflow="visible" fill-rule="evenodd" clip-rule="evenodd" fill="#FFFFFF"/>
	<clipPath id="SVGID_213_">
		<use xlink:href="#SVGID_45_"  overflow="visible"/>
	</clipPath>
	<g clip-path="url(#SVGID_213_)">
		<defs>
			<rect id="SVGID_47_" x="34.452" y="-55.379" width="141.01" height="142.907"/>
		</defs>
		<use xlink:href="#SVGID_47_"  overflow="visible" fill="#FFFFFF"/>
		<clipPath id="SVGID_214_">
			<use xlink:href="#SVGID_47_"  overflow="visible"/>
		</clipPath>
		<rect x="107.158" y="6.959" clip-path="url(#SVGID_214_)" fill="#FFFFFF" width="17.628" height="20.817"/>
	</g>
</g>
<g>
	<defs>
		<path id="SVGID_49_" d="M141.293,11.508l-1.014,2.154c-1.574-0.953-3.148-1.346-4.245-1.346c-1.429,0-2.361,0.537-2.361,1.511
			c0,3.168,7.827,1.47,7.806,6.688c0,2.588-2.278,4.182-5.467,4.182c-2.278,0-4.431-0.931-5.921-2.298l1.056-2.113
			c1.49,1.366,3.353,2.113,4.906,2.113c1.698,0,2.713-0.642,2.713-1.76c0-3.23-7.826-1.428-7.826-6.584
			c0-2.484,2.132-4.037,5.28-4.037C138.105,10.017,139.947,10.618,141.293,11.508"/>
	</defs>
	<use xlink:href="#SVGID_49_"  overflow="visible" fill-rule="evenodd" clip-rule="evenodd" fill="#FFFFFF"/>
	<clipPath id="SVGID_215_">
		<use xlink:href="#SVGID_49_"  overflow="visible"/>
	</clipPath>
	<g clip-path="url(#SVGID_215_)">
		<defs>
			<rect id="SVGID_51_" x="34.452" y="-55.379" width="141.01" height="142.907"/>
		</defs>
		<use xlink:href="#SVGID_51_"  overflow="visible" fill="#FFFFFF"/>
		<clipPath id="SVGID_216_">
			<use xlink:href="#SVGID_51_"  overflow="visible"/>
		</clipPath>
		<rect x="126.93" y="6.855" clip-path="url(#SVGID_216_)" fill="#FFFFFF" width="17.711" height="21.004"/>
	</g>
</g>
<g>
	<defs>
		<rect id="SVGID_53_" x="150.547" y="10.121" width="2.443" height="14.494"/>
	</defs>
	<use xlink:href="#SVGID_53_"  overflow="visible" fill-rule="evenodd" clip-rule="evenodd" fill="#FFFFFF"/>
	<clipPath id="SVGID_217_">
		<use xlink:href="#SVGID_53_"  overflow="visible"/>
	</clipPath>
	<g clip-path="url(#SVGID_217_)">
		<defs>
			<rect id="SVGID_55_" x="34.452" y="-55.379" width="141.01" height="142.907"/>
		</defs>
		<use xlink:href="#SVGID_55_"  overflow="visible" fill="#FFFFFF"/>
		<clipPath id="SVGID_218_">
			<use xlink:href="#SVGID_55_"  overflow="visible"/>
		</clipPath>
		<rect x="147.385" y="6.959" clip-path="url(#SVGID_218_)" fill="#FFFFFF" width="8.767" height="20.817"/>
	</g>
</g>
<g>
	<defs>
		<polygon id="SVGID_57_" points="175,24.614 172.081,24.614 168.167,19.148 164.274,24.614 161.417,24.614 166.697,17.181 
			161.789,10.121 164.626,10.121 168.167,15.152 171.728,10.121 174.586,10.121 169.72,17.078 		"/>
	</defs>
	<use xlink:href="#SVGID_57_"  overflow="visible" fill-rule="evenodd" clip-rule="evenodd" fill="#FFFFFF"/>
	<clipPath id="SVGID_219_">
		<use xlink:href="#SVGID_57_"  overflow="visible"/>
	</clipPath>
	<g clip-path="url(#SVGID_219_)">
		<defs>
			<rect id="SVGID_59_" x="34.452" y="-55.379" width="141.01" height="142.907"/>
		</defs>
		<use xlink:href="#SVGID_59_"  overflow="visible" fill="#FFFFFF"/>
		<clipPath id="SVGID_220_">
			<use xlink:href="#SVGID_59_"  overflow="visible"/>
		</clipPath>
		<rect x="158.255" y="6.959" clip-path="url(#SVGID_220_)" fill="#FFFFFF" width="19.906" height="20.817"/>
	</g>
</g>
<g>
	<defs>
		<path id="SVGID_5_" d="M38.824,10.11c4.349,0,7.496,3.044,7.496,7.247c0,4.182-3.168,7.247-7.558,7.247h-5.88V10.11H38.824z
			 M35.325,22.41h3.561c2.816,0,4.969-2.092,4.969-5.033c0-2.96-2.215-5.071-5.073-5.071h-3.458V22.41z"/>
	</defs>
	<use xlink:href="#SVGID_5_"  overflow="visible" fill-rule="evenodd" clip-rule="evenodd" fill="#FFFFFF"/>
	<clipPath id="SVGID_221_">
		<use xlink:href="#SVGID_5_"  overflow="visible"/>
	</clipPath>
	<g clip-path="url(#SVGID_221_)">
		<defs>
			<rect id="SVGID_7_" x="-5.086" y="-79.418" width="222.581" height="245.977"/>
		</defs>
		<use xlink:href="#SVGID_7_"  overflow="visible" fill="#FFFFFF"/>
		<clipPath id="SVGID_222_">
			<use xlink:href="#SVGID_7_"  overflow="visible"/>
		</clipPath>
		<rect x="29.72" y="6.948" clip-path="url(#SVGID_222_)" fill="#FFFFFF" width="19.761" height="20.817"/>
	</g>
</g>
<g>
	<g>
		<defs>
			<path id="SVGID_13_" d="M25.328,9.504c-0.176-0.171-0.457-0.166-0.628,0.011c-1.097,1.135-2.119,2.241-2.94,3.129
				c-0.21,0.227-0.402,0.435-0.576,0.622l-0.863-0.81l3.425-3.545c0.171-0.177,0.166-0.458-0.011-0.629
				c-0.176-0.17-0.457-0.165-0.627,0.011l-3.435,3.555l-0.814-0.763l3.447-3.567c0.17-0.177,0.165-0.458-0.011-0.628
				c-0.175-0.171-0.457-0.165-0.627,0.011l-3.456,3.576L17.42,9.733l3.734-3.865c0.171-0.176,0.166-0.457-0.011-0.627
				c-0.176-0.171-0.457-0.166-0.628,0.011l-4.297,4.448c-1.099,1.136-0.959,2.749,0.324,4.199l-2.443,2.566
				c-0.17,0.176-0.165,0.457,0.011,0.627c0.071,0.068,0.158,0.109,0.25,0.121c0.135,0.018,0.276-0.026,0.378-0.132l2.445-2.568
				c0.51,0.398,1.107,0.653,1.727,0.735c0.08,0.011,0.161,0.018,0.242,0.024c0.808,0.049,1.539-0.201,2.006-0.684
				c0.298-0.309,0.72-0.765,1.254-1.342c0.819-0.886,1.836-1.987,2.927-3.116C25.51,9.954,25.505,9.674,25.328,9.504 M19.205,14.386
				c-0.624-0.038-1.232-0.313-1.711-0.776c-0.938-0.906-1.598-2.222-0.69-3.236l3.772,3.539c-0.019,0.021-0.038,0.04-0.057,0.059
				C20.238,14.264,19.746,14.418,19.205,14.386"/>
		</defs>
		<use xlink:href="#SVGID_13_"  overflow="visible" fill-rule="evenodd" clip-rule="evenodd" fill="#FFFFFF"/>
		<clipPath id="SVGID_223_">
			<use xlink:href="#SVGID_13_"  overflow="visible"/>
		</clipPath>
		<g clip-path="url(#SVGID_223_)">
			<defs>
				<rect id="SVGID_15_" x="-64.536" y="-25.115" width="154.425" height="135.999"/>
			</defs>
			<use xlink:href="#SVGID_15_"  overflow="visible" fill="#FFFFFF"/>
			<clipPath id="SVGID_224_">
				<use xlink:href="#SVGID_15_"  overflow="visible"/>
			</clipPath>
			<rect x="11.781" y="2.923" clip-path="url(#SVGID_224_)" fill="#FFFFFF" width="15.876" height="16.488"/>
		</g>
	</g>
	<g>
		<defs>
			<path id="SVGID_17_" d="M3.705,5.817c-0.193,0.201-0.302,0.49,0.168,2.186c0.281,1.015,2.406,6.661,3.12,8.28
				c1.453,3.292,2.312,3.155,2.807,3.203c0.241,0.023,0.474-0.041,0.673-0.186c0.539-0.395,0.72-0.511,0.929-0.644
				c0.074-0.047,0.152-0.097,0.25-0.161c0.628,0.958,1.414,2.451,2.176,3.9c1.026,1.95,2.087,3.967,2.917,5.001
				c0.527,0.658,1.08,0.838,1.452,0.874c0.71,0.068,1.43-0.335,1.834-1.026c0.408-0.702,0.397-1.518-0.032-2.13
				C19.117,23.851,6.298,8.057,4.383,5.894C4.117,5.594,3.815,5.7,3.705,5.817 M19.261,26.794c-0.229,0.394-0.615,0.625-0.981,0.59
				c-0.288-0.027-0.58-0.216-0.844-0.545c-0.776-0.968-1.817-2.946-2.823-4.86c-0.919-1.747-1.788-3.398-2.486-4.362
				c-0.078-0.108-0.195-0.17-0.317-0.182c-0.101-0.01-0.205,0.015-0.295,0.077c-0.292,0.202-1.004,0.659-1.567,1.069
				c-0.026,0.019-0.041,0.021-0.064,0.02c-0.299,0.167-0.326-0.064-0.862-0.744C8.159,16.76,5.61,10.239,4.865,8.094
				c-0.29-0.832,0.004-0.378,0.218-0.12c2.312,2.785,13.331,16.423,14.187,17.647C19.542,26.009,19.444,26.482,19.261,26.794"/>
		</defs>
		<use xlink:href="#SVGID_17_"  overflow="visible" fill-rule="evenodd" clip-rule="evenodd" fill="#FFFFFF"/>
		<clipPath id="SVGID_225_">
			<use xlink:href="#SVGID_17_"  overflow="visible"/>
		</clipPath>
		<g clip-path="url(#SVGID_225_)">
			<defs>
				<rect id="SVGID_19_" x="-64.536" y="-25.115" width="154.425" height="135.999"/>
			</defs>
			<use xlink:href="#SVGID_19_"  overflow="visible" fill="#FFFFFF"/>
			<clipPath id="SVGID_226_">
				<use xlink:href="#SVGID_19_"  overflow="visible"/>
			</clipPath>
			<rect x="1.346" y="3.505" clip-path="url(#SVGID_226_)" fill="#FFFFFF" width="21.175" height="26.964"/>
		</g>
	</g>
	<g>
		<defs>
			<path id="SVGID_21_" d="M13.54,20.53c-0.189-0.157-0.469-0.132-0.626,0.057c-1.721,2.067-4.847,5.72-5.909,6.726
				c-0.528,0.5-1.39,0.333-1.865-0.137c-0.495-0.491-0.444-1.134,0.141-1.767c1.489-1.603,3.027-2.787,4.694-4.13
				c0.191-0.154,0.221-0.433,0.068-0.624c-0.154-0.191-0.433-0.221-0.624-0.068c-1.689,1.361-3.261,2.573-4.787,4.219
				c-1.113,1.199-0.758,2.366-0.115,3.002c0.362,0.358,0.867,0.609,1.398,0.679c0.59,0.079,1.211-0.064,1.701-0.529
				c1.227-1.161,4.734-5.304,5.981-6.802C13.755,20.967,13.729,20.687,13.54,20.53"/>
		</defs>
		<use xlink:href="#SVGID_21_"  overflow="visible" fill-rule="evenodd" clip-rule="evenodd" fill="#FFFFFF"/>
		<clipPath id="SVGID_227_">
			<use xlink:href="#SVGID_21_"  overflow="visible"/>
		</clipPath>
		<g clip-path="url(#SVGID_227_)">
			<defs>
				<rect id="SVGID_23_" x="-64.536" y="-25.115" width="154.425" height="135.999"/>
			</defs>
			<use xlink:href="#SVGID_23_"  overflow="visible" fill="#FFFFFF"/>
			<clipPath id="SVGID_228_">
				<use xlink:href="#SVGID_23_"  overflow="visible"/>
			</clipPath>
			<rect x="1.72" y="18.234" clip-path="url(#SVGID_228_)" fill="#FFFFFF" width="14.174" height="12.467"/>
		</g>
	</g>
</g>
</svg>
