<?xml version="1.0" encoding="utf-8"?>
<!-- Generator: Adobe Illustrator 17.0.0, SVG Export Plug-In . SVG Version: 6.00 Build 0)  -->
<!DOCTYPE svg PUBLIC "-//W3C//DTD SVG 1.1//EN" "http://www.w3.org/Graphics/SVG/1.1/DTD/svg11.dtd">
<svg version="1.1" id="Layer_1" xmlns="http://www.w3.org/2000/svg" xmlns:xlink="http://www.w3.org/1999/xlink" x="0px" y="0px"
	 width="232.269px" height="237.665px" viewBox="0 0 232.269 237.665" enable-background="new 0 0 232.269 237.665"
	 xml:space="preserve">
<g>
	<defs>
		<path id="SVGID_24_" d="M14.709,108.567c6.877,0,11.854,4.814,11.854,11.46c0,6.614-5.01,11.461-11.952,11.461H5.312v-22.921
			H14.709z M9.176,128.018h5.632c4.453,0,7.858-3.309,7.858-7.959c0-4.681-3.503-8.02-8.022-8.02H9.176V128.018z"/>
	</defs>
	<use xlink:href="#SVGID_24_"  overflow="visible" fill-rule="evenodd" clip-rule="evenodd" fill="#FFFFFF"/>
	<clipPath id="SVGID_25_">
		<use xlink:href="#SVGID_24_"  overflow="visible"/>
	</clipPath>
	<g clip-path="url(#SVGID_25_)">
		<defs>
			<rect id="SVGID_26_" x="-59.732" y="-38.017" width="352" height="310"/>
		</defs>
		<use xlink:href="#SVGID_26_"  overflow="visible" fill="#FFFFFF"/>
		<clipPath id="SVGID_28_">
			<use xlink:href="#SVGID_26_"  overflow="visible"/>
		</clipPath>
		<rect x="0.312" y="103.567" clip-path="url(#SVGID_28_)" fill="#FFFFFF" width="31.251" height="32.921"/>
	</g>
</g>
<g>
	<defs>
		<rect id="SVGID_30_" x="431" y="-28" width="221.177" height="90.428"/>
	</defs>
	<clipPath id="SVGID_32_">
		<use xlink:href="#SVGID_30_"  overflow="visible"/>
	</clipPath>
	<g clip-path="url(#SVGID_32_)">
		<defs>
			<rect id="SVGID_34_" x="371" y="-66" width="352" height="389"/>
		</defs>
		<clipPath id="SVGID_36_">
			<use xlink:href="#SVGID_34_"  overflow="visible"/>
		</clipPath>
		<g clip-path="url(#SVGID_36_)" enable-background="new    ">
			<g>
				<defs>
					<rect id="SVGID_38_" x="431" y="-28" width="222" height="91"/>
				</defs>
				<clipPath id="SVGID_40_">
					<use xlink:href="#SVGID_38_"  overflow="visible"/>
				</clipPath>
				<g clip-path="url(#SVGID_40_)">
					<defs>
						<path id="SVGID_42_" d="M434.084,62.428C444.47,12.6,488.722-24.95,541.586-24.95c52.626,0,96.705,37.217,107.348,86.708
							c1.069-0.129,2.212,0.045,3.243,0.512C641.682,10.826,596.084-28,541.586-28C487.096-28,441.502,10.817,431,62.251
							C432.042,61.89,433.115,61.985,434.084,62.428"/>
					</defs>
					<clipPath id="SVGID_44_">
						<use xlink:href="#SVGID_42_"  overflow="visible"/>
					</clipPath>
					<g clip-path="url(#SVGID_44_)">
						<defs>
							<rect id="SVGID_46_" x="431" y="-28" width="222" height="91"/>
						</defs>
						<clipPath id="SVGID_48_">
							<use xlink:href="#SVGID_46_"  overflow="visible"/>
						</clipPath>
						<rect x="426" y="-33" clip-path="url(#SVGID_48_)" fill="#220E00" width="231.177" height="100.428"/>
					</g>
				</g>
			</g>
		</g>
	</g>
</g>
<g>
	<defs>
		<rect id="SVGID_50_" x="432.286" y="112.545" width="218.642" height="85.185"/>
	</defs>
	<clipPath id="SVGID_52_">
		<use xlink:href="#SVGID_50_"  overflow="visible"/>
	</clipPath>
	<g clip-path="url(#SVGID_52_)">
		<defs>
			<rect id="SVGID_54_" x="371" y="-66" width="352" height="389"/>
		</defs>
		<clipPath id="SVGID_56_">
			<use xlink:href="#SVGID_54_"  overflow="visible"/>
		</clipPath>
		<g clip-path="url(#SVGID_56_)" enable-background="new    ">
			<g>
				<defs>
					<rect id="SVGID_58_" x="432" y="112" width="219" height="86"/>
				</defs>
				<clipPath id="SVGID_60_">
					<use xlink:href="#SVGID_58_"  overflow="visible"/>
				</clipPath>
				<g clip-path="url(#SVGID_60_)">
					<defs>
						<path id="SVGID_62_" d="M647.823,112.545c-12.305,47.188-55.248,82.135-106.237,82.135c-50.936,0-93.874-34.863-106.23-81.978
							c-0.988,0.405-2.064,0.534-3.07,0.356c12.553,48.636,56.797,84.673,109.3,84.673c52.632,0,96.916-36.233,109.342-85.051
							C649.915,112.824,648.865,112.775,647.823,112.545"/>
					</defs>
					<clipPath id="SVGID_64_">
						<use xlink:href="#SVGID_62_"  overflow="visible"/>
					</clipPath>
					<g clip-path="url(#SVGID_64_)">
						<defs>
							<rect id="SVGID_66_" x="432" y="112" width="219" height="86"/>
						</defs>
						<clipPath id="SVGID_68_">
							<use xlink:href="#SVGID_66_"  overflow="visible"/>
						</clipPath>
						<rect x="427.286" y="107.545" clip-path="url(#SVGID_68_)" fill="#220E00" width="228.642" height="95.186"/>
					</g>
				</g>
			</g>
		</g>
	</g>
</g>
<g>
	<defs>
		<path id="SVGID_70_" d="M518.708,62.223c0.801,0,1.604,0.007,2.407,0.014l-45.559-45.56c-0.596-0.596-1.561-0.596-2.157,0
			c-0.596,0.596-0.596,1.561,0,2.157l43.662,43.661C517.559,62.335,518.095,62.223,518.708,62.223"/>
	</defs>
	<clipPath id="SVGID_72_">
		<use xlink:href="#SVGID_70_"  overflow="visible"/>
	</clipPath>
	<g clip-path="url(#SVGID_72_)">
		<defs>
			<rect id="SVGID_74_" x="371" y="-66" width="352" height="389"/>
		</defs>
		<clipPath id="SVGID_76_">
			<use xlink:href="#SVGID_74_"  overflow="visible"/>
		</clipPath>
		<rect x="467.952" y="11.23" clip-path="url(#SVGID_76_)" fill="#220E00" width="58.163" height="56.265"/>
	</g>
</g>
<g>
	<defs>
		<path id="SVGID_78_" d="M609.774,150.895l-39.491-39.491c-1.317,0.243-2.684,0.334-3.999,0.314l41.333,41.334
			c0.298,0.298,0.688,0.447,1.078,0.447c0.391,0,0.781-0.149,1.079-0.447C610.37,152.456,610.37,151.491,609.774,150.895"/>
	</defs>
	<clipPath id="SVGID_80_">
		<use xlink:href="#SVGID_78_"  overflow="visible"/>
	</clipPath>
	<g clip-path="url(#SVGID_80_)">
		<defs>
			<rect id="SVGID_82_" x="371" y="-66" width="352" height="389"/>
		</defs>
		<clipPath id="SVGID_84_">
			<use xlink:href="#SVGID_82_"  overflow="visible"/>
		</clipPath>
		<rect x="561.284" y="106.404" clip-path="url(#SVGID_84_)" fill="#220E00" width="53.937" height="52.095"/>
	</g>
</g>
<g>
	<defs>
		<path id="SVGID_86_" d="M511.689,112.605l-38.29,38.29c-0.596,0.596-0.596,1.561,0,2.157c0.298,0.298,0.688,0.447,1.078,0.447
			c0.39,0,0.781-0.149,1.079-0.447l40.125-40.126C514.344,112.905,513.01,112.783,511.689,112.605"/>
	</defs>
	<clipPath id="SVGID_88_">
		<use xlink:href="#SVGID_86_"  overflow="visible"/>
	</clipPath>
	<g clip-path="url(#SVGID_88_)">
		<defs>
			<rect id="SVGID_90_" x="371" y="-66" width="352" height="389"/>
		</defs>
		<clipPath id="SVGID_91_">
			<use xlink:href="#SVGID_90_"  overflow="visible"/>
		</clipPath>
		<rect x="467.952" y="107.605" clip-path="url(#SVGID_91_)" fill="#220E00" width="52.729" height="50.894"/>
	</g>
</g>
<g>
	<defs>
		<path id="SVGID_92_" d="M609.774,16.678c-0.596-0.596-1.561-0.596-2.157,0l-45.32,45.32c1.177,0.184,2.342,0.462,3.497,0.817
			l43.98-43.98C610.37,18.239,610.37,17.274,609.774,16.678"/>
	</defs>
	<clipPath id="SVGID_93_">
		<use xlink:href="#SVGID_92_"  overflow="visible"/>
	</clipPath>
	<g clip-path="url(#SVGID_93_)">
		<defs>
			<rect id="SVGID_94_" x="371" y="-66" width="352" height="389"/>
		</defs>
		<clipPath id="SVGID_95_">
			<use xlink:href="#SVGID_94_"  overflow="visible"/>
		</clipPath>
		<rect x="557.297" y="11.231" clip-path="url(#SVGID_95_)" fill="#220E00" width="57.924" height="56.584"/>
	</g>
</g>
<g>
	<defs>
		<path id="SVGID_96_" d="M570.84,7.911c-0.401-0.389-1.042-0.379-1.431,0.024c-2.501,2.588-4.83,5.108-6.702,7.133
			c-0.478,0.518-0.916,0.992-1.314,1.418l-1.968-1.847l7.808-8.081c0.389-0.403,0.379-1.044-0.024-1.433
			c-0.402-0.388-1.042-0.376-1.43,0.026l-7.83,8.103l-1.855-1.739l7.857-8.13c0.388-0.403,0.376-1.044-0.026-1.432
			c-0.4-0.389-1.042-0.377-1.43,0.025l-7.877,8.151l-1.805-1.694l8.511-8.81c0.389-0.402,0.379-1.042-0.024-1.43
			c-0.401-0.389-1.042-0.378-1.431,0.024l-9.795,10.138c-2.504,2.59-2.186,6.267,0.739,9.572l-5.569,5.85
			c-0.388,0.402-0.376,1.042,0.026,1.43c0.162,0.156,0.361,0.248,0.569,0.276c0.307,0.042,0.629-0.06,0.862-0.3l5.573-5.854
			c1.163,0.907,2.524,1.488,3.937,1.676c0.182,0.025,0.366,0.042,0.551,0.054c1.842,0.112,3.509-0.458,4.573-1.558
			c0.679-0.704,1.642-1.744,2.858-3.06c1.866-2.019,4.186-4.53,6.672-7.102C571.254,8.938,571.242,8.299,570.84,7.911
			 M556.883,19.04c-1.423-0.086-2.809-0.714-3.901-1.769c-2.137-2.065-3.642-5.066-1.572-7.377l8.598,8.068
			c-0.044,0.047-0.086,0.091-0.129,0.135C559.236,18.762,558.116,19.114,556.883,19.04"/>
	</defs>
	<clipPath id="SVGID_97_">
		<use xlink:href="#SVGID_96_"  overflow="visible"/>
	</clipPath>
	<g clip-path="url(#SVGID_97_)">
		<defs>
			<rect id="SVGID_98_" x="371" y="-66" width="352" height="389"/>
		</defs>
		<clipPath id="SVGID_99_">
			<use xlink:href="#SVGID_98_"  overflow="visible"/>
		</clipPath>
		<rect x="539.961" y="-7.089" clip-path="url(#SVGID_99_)" fill="#220E00" width="36.189" height="37.584"/>
	</g>
</g>
<g>
	<defs>
		<path id="SVGID_100_" d="M521.551-0.492c-0.439,0.459-0.688,1.117,0.384,4.983c0.641,2.314,5.485,15.183,7.112,18.873
			c3.313,7.505,5.269,7.191,6.399,7.3c0.55,0.053,1.081-0.093,1.533-0.424c1.229-0.9,1.641-1.164,2.117-1.469
			c0.168-0.106,0.346-0.22,0.569-0.368c1.432,2.183,3.222,5.586,4.959,8.889c2.339,4.445,4.758,9.042,6.648,11.4
			c1.201,1.499,2.462,1.911,3.309,1.992c1.619,0.155,3.26-0.763,4.18-2.339c0.931-1.601,0.905-3.46-0.072-4.856
			c-2.008-2.873-31.227-38.874-35.592-43.806C522.49-1,521.803-0.759,521.551-0.492 M557.011,47.324
			c-0.522,0.897-1.401,1.424-2.237,1.344c-0.657-0.062-1.322-0.492-1.923-1.242c-1.769-2.206-4.141-6.715-6.435-11.077
			c-2.095-3.983-4.076-7.745-5.666-9.942c-0.177-0.246-0.444-0.387-0.723-0.414c-0.23-0.022-0.468,0.034-0.673,0.176
			c-0.665,0.46-2.289,1.502-3.571,2.436c-0.059,0.043-0.093,0.049-0.145,0.045c-0.682,0.381-0.743-0.145-1.965-1.697
			c-1.969-2.5-7.78-17.365-9.478-22.254c-0.661-1.896,0.01-0.862,0.498-0.274c5.271,6.348,30.387,37.434,32.339,40.225
			C557.651,45.534,557.428,46.612,557.011,47.324"/>
	</defs>
	<clipPath id="SVGID_101_">
		<use xlink:href="#SVGID_100_"  overflow="visible"/>
	</clipPath>
	<g clip-path="url(#SVGID_101_)">
		<defs>
			<rect id="SVGID_102_" x="371" y="-66" width="352" height="389"/>
		</defs>
		<clipPath id="SVGID_103_">
			<use xlink:href="#SVGID_102_"  overflow="visible"/>
		</clipPath>
		<rect x="516.175" y="-5.762" clip-path="url(#SVGID_103_)" fill="#220E00" width="48.266" height="61.462"/>
	</g>
</g>
<g>
	<defs>
		<path id="SVGID_104_" d="M543.97,33.045c-0.431-0.357-1.069-0.3-1.426,0.131c-3.923,4.711-11.049,13.039-13.47,15.331
			c-1.204,1.139-3.168,0.758-4.25-0.313c-1.129-1.119-1.013-2.586,0.322-4.027c3.393-3.655,6.9-6.352,10.699-9.415
			c0.436-0.351,0.504-0.988,0.154-1.423c-0.352-0.436-0.988-0.503-1.423-0.154c-3.85,3.103-7.433,5.865-10.912,9.616
			c-2.536,2.733-1.727,5.394-0.263,6.842c0.826,0.817,1.977,1.388,3.186,1.548c1.344,0.18,2.761-0.147,3.878-1.206
			c2.798-2.646,10.791-12.091,13.634-15.505C544.458,34.041,544.399,33.403,543.97,33.045"/>
	</defs>
	<clipPath id="SVGID_105_">
		<use xlink:href="#SVGID_104_"  overflow="visible"/>
	</clipPath>
	<g clip-path="url(#SVGID_105_)">
		<defs>
			<rect id="SVGID_106_" x="371" y="-66" width="352" height="389"/>
		</defs>
		<clipPath id="SVGID_107_">
			<use xlink:href="#SVGID_106_"  overflow="visible"/>
		</clipPath>
		<rect x="517.026" y="27.811" clip-path="url(#SVGID_107_)" fill="#220E00" width="32.309" height="28.417"/>
	</g>
</g>
<g>
	<defs>
		<path id="SVGID_108_" d="M566.633,146.413c0-2.796-0.666-5.537-1.927-7.929c-0.152-0.289-0.451-0.468-0.777-0.468h-15.462
			c0.512-2.736,0.772-5.913,0.772-9.457c0-0.485-0.394-0.878-0.878-0.878h-30.943c-0.484,0-0.878,0.393-0.878,0.878
			c0,8.841,1.546,15.061,4.725,19.019c2.545,3.168,6.067,4.803,10.746,4.982v20.035h-6.182c-0.484,0-0.878,0.393-0.878,0.878
			c0,0.484,0.394,0.878,0.878,0.878h14.12c0.485,0,0.878-0.394,0.878-0.878c0-0.485-0.393-0.878-0.878-0.878h-6.182v-20.036
			c2.271-0.086,4.245-0.513,5.993-1.294c1.724,5.897,6.502,10.245,12.214,10.652v10.678h-6.181c-0.486,0-0.878,0.393-0.878,0.878
			c0,0.484,0.392,0.878,0.878,0.878h14.119c0.484,0,0.878-0.394,0.878-0.878c0-0.485-0.394-0.878-0.878-0.878h-6.182v-10.678
			C560.921,161.404,566.633,154.648,566.633,146.413z M564.842,145.374h-23.979c0.128-1.967,0.623-3.879,1.452-5.603h21.074
			C564.218,141.495,564.713,143.407,564.842,145.374z M547.477,129.437c-0.024,1.892-0.127,3.668-0.306,5.313h-28.56
			c-0.178-1.608-0.285-3.373-0.31-5.313H547.477z M532.889,150.821c-5.31,0-12.103-1.657-14.049-14.315h28.103
			c-0.079,0.518-0.166,1.021-0.263,1.51h-4.905c-0.326,0-0.625,0.179-0.777,0.468c-1.261,2.392-1.926,5.133-1.926,7.929
			c0,1.064,0.095,2.103,0.276,3.108C537.539,150.395,535.422,150.821,532.889,150.821z M540.843,147.13h24.018
			c-0.327,7.267-5.588,13.063-12.009,13.063C546.431,160.193,541.17,154.397,540.843,147.13z"/>
	</defs>
	<clipPath id="SVGID_109_">
		<use xlink:href="#SVGID_108_"  overflow="visible"/>
	</clipPath>
	<g clip-path="url(#SVGID_109_)">
		<defs>
			<rect id="SVGID_110_" x="371" y="-66" width="352" height="389"/>
		</defs>
		<clipPath id="SVGID_111_">
			<use xlink:href="#SVGID_110_"  overflow="visible"/>
		</clipPath>
		<rect x="511.54" y="122.681" clip-path="url(#SVGID_111_)" fill="#220E00" width="60.093" height="56.67"/>
	</g>
</g>
<g>
	<defs>
		<path id="SVGID_112_" d="M440.441,75.584c6.877,0,11.854,4.814,11.854,11.46c0,6.614-5.01,11.461-11.952,11.461h-9.299V75.584
			H440.441z M434.909,95.035h5.632c4.453,0,7.858-3.309,7.858-7.959c0-4.681-3.503-8.02-8.022-8.02h-5.468V95.035z"/>
	</defs>
	<clipPath id="SVGID_113_">
		<use xlink:href="#SVGID_112_"  overflow="visible"/>
	</clipPath>
	<g clip-path="url(#SVGID_113_)">
		<defs>
			<rect id="SVGID_114_" x="371" y="-66" width="352" height="389"/>
		</defs>
		<clipPath id="SVGID_115_">
			<use xlink:href="#SVGID_114_"  overflow="visible"/>
		</clipPath>
		<rect x="426.044" y="70.584" clip-path="url(#SVGID_115_)" fill="#220E00" width="31.251" height="32.921"/>
	</g>
</g>
<g>
	<defs>
		<rect id="SVGID_116_" x="431" y="-28" width="222.269" height="225.73"/>
	</defs>
	<clipPath id="SVGID_117_">
		<use xlink:href="#SVGID_116_"  overflow="visible"/>
	</clipPath>
	<g clip-path="url(#SVGID_117_)">
		<defs>
			<rect id="SVGID_118_" x="371" y="-66" width="352" height="389"/>
		</defs>
		<clipPath id="SVGID_119_">
			<use xlink:href="#SVGID_118_"  overflow="visible"/>
		</clipPath>
		<g clip-path="url(#SVGID_119_)" enable-background="new    ">
			<g>
				<defs>
					<rect id="SVGID_120_" x="466" y="75" width="188" height="24"/>
				</defs>
				<clipPath id="SVGID_121_">
					<use xlink:href="#SVGID_120_"  overflow="visible"/>
				</clipPath>
				<g clip-path="url(#SVGID_121_)">
					<defs>
						<rect id="SVGID_122_" x="466.244" y="75.584" width="3.863" height="22.921"/>
					</defs>
					<clipPath id="SVGID_123_">
						<use xlink:href="#SVGID_122_"  overflow="visible"/>
					</clipPath>
					<g clip-path="url(#SVGID_123_)">
						<defs>
							<rect id="SVGID_124_" x="431" y="-28" width="223" height="226"/>
						</defs>
						<clipPath id="SVGID_125_">
							<use xlink:href="#SVGID_124_"  overflow="visible"/>
						</clipPath>
						<rect x="461.244" y="70.584" clip-path="url(#SVGID_125_)" fill="#220E00" width="13.863" height="32.921"/>
					</g>
				</g>
				<g clip-path="url(#SVGID_121_)">
					<defs>
						<polygon id="SVGID_126_" points="502.031,98.505 489.817,82.068 489.817,98.505 485.954,98.505 485.954,75.584 
							489.752,75.584 502.031,92.055 502.031,75.584 505.829,75.584 505.829,98.505 						"/>
					</defs>
					<clipPath id="SVGID_127_">
						<use xlink:href="#SVGID_126_"  overflow="visible"/>
					</clipPath>
					<g clip-path="url(#SVGID_127_)">
						<defs>
							<rect id="SVGID_128_" x="431" y="-28" width="223" height="226"/>
						</defs>
						<clipPath id="SVGID_129_">
							<use xlink:href="#SVGID_128_"  overflow="visible"/>
						</clipPath>
						<rect x="480.954" y="70.584" clip-path="url(#SVGID_129_)" fill="#220E00" width="29.875" height="32.921"/>
					</g>
				</g>
				<g clip-path="url(#SVGID_121_)">
					<defs>
						<polygon id="SVGID_130_" points="525.572,79.056 525.572,85.243 536.77,85.243 536.77,88.715 525.572,88.715 525.572,95.035 
							538.474,95.035 538.474,98.505 521.709,98.505 521.709,75.584 538.081,75.584 538.081,79.056 						"/>
					</defs>
					<clipPath id="SVGID_131_">
						<use xlink:href="#SVGID_130_"  overflow="visible"/>
					</clipPath>
					<g clip-path="url(#SVGID_131_)">
						<defs>
							<rect id="SVGID_132_" x="431" y="-28" width="223" height="226"/>
						</defs>
						<clipPath id="SVGID_133_">
							<use xlink:href="#SVGID_132_"  overflow="visible"/>
						</clipPath>
						<rect x="516.709" y="70.584" clip-path="url(#SVGID_133_)" fill="#220E00" width="26.765" height="32.921"/>
					</g>
				</g>
				<g clip-path="url(#SVGID_121_)">
					<defs>
						<polygon id="SVGID_134_" points="561.916,89.434 561.916,83.999 565.519,83.999 565.519,89.434 568.858,89.434 
							568.858,92.872 565.519,92.872 565.519,98.504 561.916,98.504 561.916,92.872 550.98,92.872 550.98,89.991 558.806,75.583 
							562.539,75.583 555.106,89.434 						"/>
					</defs>
					<clipPath id="SVGID_135_">
						<use xlink:href="#SVGID_134_"  overflow="visible"/>
					</clipPath>
					<g clip-path="url(#SVGID_135_)">
						<defs>
							<rect id="SVGID_136_" x="431" y="-28" width="223" height="226"/>
						</defs>
						<clipPath id="SVGID_137_">
							<use xlink:href="#SVGID_136_"  overflow="visible"/>
						</clipPath>
						<rect x="545.98" y="70.583" clip-path="url(#SVGID_137_)" fill="#220E00" width="27.878" height="32.921"/>
					</g>
				</g>
				<g clip-path="url(#SVGID_121_)">
					<defs>
						<path id="SVGID_138_" d="M599.963,77.778l-1.604,3.406c-2.489-1.507-4.978-2.128-6.713-2.128c-2.26,0-3.733,0.85-3.733,2.389
							c0,5.01,12.378,2.325,12.345,10.577c0,4.092-3.602,6.614-8.645,6.614c-3.602,0-7.008-1.473-9.364-3.634l1.67-3.341
							c2.357,2.161,5.303,3.341,7.759,3.341c2.686,0,4.29-1.016,4.29-2.784c0-5.108-12.377-2.259-12.377-10.413
							c0-3.929,3.372-6.385,8.35-6.385C594.921,75.42,597.835,76.37,599.963,77.778"/>
					</defs>
					<clipPath id="SVGID_139_">
						<use xlink:href="#SVGID_138_"  overflow="visible"/>
					</clipPath>
					<g clip-path="url(#SVGID_139_)">
						<defs>
							<rect id="SVGID_140_" x="431" y="-28" width="223" height="226"/>
						</defs>
						<clipPath id="SVGID_141_">
							<use xlink:href="#SVGID_140_"  overflow="visible"/>
						</clipPath>
						<rect x="577.249" y="70.42" clip-path="url(#SVGID_141_)" fill="#220E00" width="28.009" height="33.216"/>
					</g>
				</g>
				<g clip-path="url(#SVGID_121_)">
					<defs>
						<rect id="SVGID_142_" x="614.598" y="75.584" width="3.864" height="22.921"/>
					</defs>
					<clipPath id="SVGID_143_">
						<use xlink:href="#SVGID_142_"  overflow="visible"/>
					</clipPath>
					<g clip-path="url(#SVGID_143_)">
						<defs>
							<rect id="SVGID_144_" x="431" y="-28" width="223" height="226"/>
						</defs>
						<clipPath id="SVGID_145_">
							<use xlink:href="#SVGID_144_"  overflow="visible"/>
						</clipPath>
						<rect x="609.598" y="70.584" clip-path="url(#SVGID_145_)" fill="#220E00" width="13.864" height="32.921"/>
					</g>
				</g>
				<g clip-path="url(#SVGID_121_)">
					<defs>
						<polygon id="SVGID_146_" points="653.269,98.505 648.652,98.505 642.463,89.86 636.307,98.505 631.788,98.505 640.138,86.75 
							632.376,75.584 636.863,75.584 642.463,83.541 648.095,75.584 652.614,75.584 644.919,86.587 						"/>
					</defs>
					<clipPath id="SVGID_147_">
						<use xlink:href="#SVGID_146_"  overflow="visible"/>
					</clipPath>
					<g clip-path="url(#SVGID_147_)">
						<defs>
							<rect id="SVGID_148_" x="431" y="-28" width="223" height="226"/>
						</defs>
						<clipPath id="SVGID_149_">
							<use xlink:href="#SVGID_148_"  overflow="visible"/>
						</clipPath>
						<rect x="626.788" y="70.584" clip-path="url(#SVGID_149_)" fill="#220E00" width="31.481" height="32.921"/>
					</g>
				</g>
			</g>
		</g>
	</g>
</g>
<g>
	<defs>
		<path id="SVGID_150_" d="M676.901,257.071c-1.519,0-2.573,1.054-2.573,2.573c0,1.55,1.054,2.604,2.573,2.604
			c1.519,0,2.604-1.054,2.604-2.604C679.504,258.125,678.419,257.071,676.901,257.071z M671.537,257.381
			c-0.806,0.341-1.519,0.558-2.077,0.558c-0.992,0.031-1.55-0.527-1.55-1.829v-6.541h4.371v-3.534h-4.371v-4.619h-5.332v4.65h-2.325
			v3.503h2.325v7.378c0,3.472,2.325,5.301,5.549,5.301c1.612,0,3.255-0.434,4.464-1.147L671.537,257.381z M649.279,258.621
			c1.674,0,3.1-0.93,3.441-2.294v-1.488h-3.379c-1.612,0-2.418,0.558-2.418,1.798C646.923,257.846,647.792,258.621,649.279,258.621z
			 M650.706,245.043c4.588,0,7.254,2.263,7.285,6.045V262h-5.239v-1.922c-1.085,1.426-2.852,2.17-5.115,2.17
			c-3.565,0-5.735-2.17-5.735-5.239c0-3.162,2.263-5.022,6.417-5.053h4.402v-0.248c0-1.643-1.085-2.635-3.255-2.635
			c-1.395,0-3.224,0.496-4.991,1.395l-1.519-3.534C645.56,245.725,647.915,245.043,650.706,245.043z M639.328,244.64v-4.34h-16.988
			V262h17.329v-4.34h-11.811v-4.371h10.354v-4.34h-10.354v-4.309H639.328z M609.196,257.071c-1.519,0-2.573,1.054-2.573,2.573
			c0,1.55,1.054,2.604,2.573,2.604c1.519,0,2.604-1.054,2.604-2.604C611.8,258.125,610.716,257.071,609.196,257.071z
			 M592.828,252.204h6.696c0-2.046-1.302-3.379-3.224-3.379C594.44,248.825,593.169,250.189,592.828,252.204z M596.238,245.105
			c5.89,0,8.804,3.875,8.432,9.982h-11.749c0.527,1.984,1.953,3.1,3.937,3.1c1.457,0,2.883-0.589,3.999-1.705l2.821,2.759
			c-1.705,1.86-4.216,2.945-7.285,2.945c-5.456,0-8.866-3.41-8.866-8.494C587.527,248.515,591.061,245.105,596.238,245.105z
			 M584.49,262v-23.002h-5.363V262H584.49z M566.076,257.226c2.077,0,3.472-1.674,3.472-4.061c0-2.449-1.395-4.092-3.472-4.092
			c-2.108,0-3.534,1.674-3.534,4.092C562.542,255.552,563.967,257.226,566.076,257.226z M574.88,245.291v15.19
			c0,4.743-3.658,7.75-9.052,7.75c-2.914,0-5.549-0.93-7.44-2.201l1.86-3.627c1.519,1.054,3.379,1.674,5.177,1.674
			c2.573,0,4.123-1.364,4.123-3.441v-1.767c-1.085,1.426-2.728,2.232-4.805,2.232c-4.216,0-7.192-3.224-7.192-8.091
			c0-4.743,2.883-7.905,7.068-7.905c2.139-0.031,3.813,0.775,4.929,2.232v-2.046H574.88z M548.995,245.043
			c-2.48,0.031-4.402,1.023-5.58,2.976v-2.728h-5.363V262h5.363v-8.835c0.217-1.984,1.457-3.379,3.41-3.379
			c1.798,0,2.945,1.209,2.945,3.162V262h5.332v-10.54C555.102,247.554,552.683,245.043,548.995,245.043z M533.742,262v-16.709
			h-5.332V262H533.742z M531.107,237.665c-1.643,0-2.821,1.178-2.821,2.821c0,1.674,1.178,2.852,2.821,2.852
			s2.821-1.178,2.821-2.852C533.928,238.843,532.75,237.665,531.107,237.665z M524.07,262v-21.731h-6.014l-5.89,12.927l-5.89-12.927
			h-6.045V262h4.929v-14.105l5.208,11.935h3.596l5.208-11.935L519.203,262H524.07z M487.087,257.071
			c-1.519,0-2.573,1.054-2.573,2.573c0,1.55,1.054,2.604,2.573,2.604s2.604-1.054,2.604-2.604
			C489.691,258.125,488.607,257.071,487.087,257.071z M481.724,257.381c-0.806,0.341-1.519,0.558-2.077,0.558
			c-0.992,0.031-1.55-0.527-1.55-1.829v-6.541h4.371v-3.534h-4.371v-4.619h-5.332v4.65h-2.325v3.503h2.325v7.378
			c0,3.472,2.325,5.301,5.549,5.301c1.612,0,3.255-0.434,4.464-1.147L481.724,257.381z M457.234,252.204h6.696
			c0-2.046-1.302-3.379-3.224-3.379C458.846,248.825,457.576,250.189,457.234,252.204z M460.645,245.105
			c5.89,0,8.804,3.875,8.432,9.982h-11.749c0.527,1.984,1.953,3.1,3.937,3.1c1.457,0,2.883-0.589,3.999-1.705l2.821,2.759
			c-1.705,1.86-4.216,2.945-7.285,2.945c-5.456,0-8.866-3.41-8.866-8.494C451.934,248.515,455.467,245.105,460.645,245.105z
			 M438.572,252.204h6.696c0-2.046-1.302-3.379-3.224-3.379C440.185,248.825,438.913,250.189,438.572,252.204z M441.982,245.105
			c5.89,0,8.804,3.875,8.432,9.982h-11.749c0.527,1.984,1.953,3.1,3.937,3.1c1.457,0,2.883-0.589,3.999-1.705l2.821,2.759
			c-1.705,1.86-4.216,2.945-7.285,2.945c-5.456,0-8.866-3.41-8.866-8.494C433.271,248.515,436.805,245.105,441.982,245.105z
			 M430.327,262v-21.731h-6.014l-5.89,12.927l-5.89-12.927h-6.045V262h4.929v-14.105l5.208,11.935h3.596l5.208-11.935L425.46,262
			H430.327z"/>
	</defs>
	<clipPath id="SVGID_151_">
		<use xlink:href="#SVGID_150_"  overflow="visible"/>
	</clipPath>
	<g clip-path="url(#SVGID_151_)">
		<defs>
			<rect id="SVGID_152_" x="371" y="-66" width="352" height="389"/>
		</defs>
		<clipPath id="SVGID_153_">
			<use xlink:href="#SVGID_152_"  overflow="visible"/>
		</clipPath>
		<rect x="401.487" y="232.665" clip-path="url(#SVGID_153_)" fill="#220E00" width="283.017" height="40.566"/>
	</g>
</g>
<g>
	<defs>
		<rect id="SVGID_33_" x="221.392" y="360.12" width="2.443" height="14.494"/>
	</defs>
	<use xlink:href="#SVGID_33_"  overflow="visible" fill-rule="evenodd" clip-rule="evenodd" fill="#FFFFFF"/>
	<clipPath id="SVGID_154_">
		<use xlink:href="#SVGID_33_"  overflow="visible"/>
	</clipPath>
	<g clip-path="url(#SVGID_154_)">
		<defs>
			<rect id="SVGID_35_" x="199.106" y="294.621" width="141.01" height="142.907"/>
		</defs>
		<use xlink:href="#SVGID_35_"  overflow="visible" fill="#FFFFFF"/>
		<clipPath id="SVGID_155_">
			<use xlink:href="#SVGID_35_"  overflow="visible"/>
		</clipPath>
		<rect x="218.23" y="356.959" clip-path="url(#SVGID_155_)" fill="#FFFFFF" width="8.766" height="20.817"/>
	</g>
</g>
<g>
	<defs>
		<polygon id="SVGID_37_" points="244.021,374.614 236.298,364.22 236.298,374.614 233.855,374.614 233.855,360.12 236.257,360.12 
			244.021,370.536 244.021,360.12 246.423,360.12 246.423,374.614 		"/>
	</defs>
	<use xlink:href="#SVGID_37_"  overflow="visible" fill-rule="evenodd" clip-rule="evenodd" fill="#FFFFFF"/>
	<clipPath id="SVGID_156_">
		<use xlink:href="#SVGID_37_"  overflow="visible"/>
	</clipPath>
	<g clip-path="url(#SVGID_156_)">
		<defs>
			<rect id="SVGID_39_" x="199.106" y="294.621" width="141.01" height="142.907"/>
		</defs>
		<use xlink:href="#SVGID_39_"  overflow="visible" fill="#FFFFFF"/>
		<clipPath id="SVGID_157_">
			<use xlink:href="#SVGID_39_"  overflow="visible"/>
		</clipPath>
		<rect x="230.694" y="356.959" clip-path="url(#SVGID_157_)" fill="#FFFFFF" width="18.891" height="20.817"/>
	</g>
</g>
<g>
	<defs>
		<polygon id="SVGID_41_" points="258.907,362.316 258.907,366.228 265.988,366.228 265.988,368.423 258.907,368.423 
			258.907,372.42 267.065,372.42 267.065,374.614 256.464,374.614 256.464,360.12 266.816,360.12 266.816,362.316 		"/>
	</defs>
	<use xlink:href="#SVGID_41_"  overflow="visible" fill-rule="evenodd" clip-rule="evenodd" fill="#FFFFFF"/>
	<clipPath id="SVGID_158_">
		<use xlink:href="#SVGID_41_"  overflow="visible"/>
	</clipPath>
	<g clip-path="url(#SVGID_158_)">
		<defs>
			<rect id="SVGID_43_" x="199.106" y="294.621" width="141.01" height="142.907"/>
		</defs>
		<use xlink:href="#SVGID_43_"  overflow="visible" fill="#FFFFFF"/>
		<clipPath id="SVGID_159_">
			<use xlink:href="#SVGID_43_"  overflow="visible"/>
		</clipPath>
		<rect x="253.302" y="356.959" clip-path="url(#SVGID_159_)" fill="#FFFFFF" width="16.924" height="20.817"/>
	</g>
</g>
<g>
	<defs>
		<polygon id="SVGID_45_" points="281.888,368.879 281.888,365.442 284.167,365.442 284.167,368.879 286.278,368.879 
			286.278,371.053 284.167,371.053 284.167,374.614 281.888,374.614 281.888,371.053 274.973,371.053 274.973,369.231 
			279.922,360.12 282.282,360.12 277.582,368.879 		"/>
	</defs>
	<use xlink:href="#SVGID_45_"  overflow="visible" fill-rule="evenodd" clip-rule="evenodd" fill="#FFFFFF"/>
	<clipPath id="SVGID_160_">
		<use xlink:href="#SVGID_45_"  overflow="visible"/>
	</clipPath>
	<g clip-path="url(#SVGID_160_)">
		<defs>
			<rect id="SVGID_47_" x="199.106" y="294.621" width="141.01" height="142.907"/>
		</defs>
		<use xlink:href="#SVGID_47_"  overflow="visible" fill="#FFFFFF"/>
		<clipPath id="SVGID_161_">
			<use xlink:href="#SVGID_47_"  overflow="visible"/>
		</clipPath>
		<rect x="271.811" y="356.959" clip-path="url(#SVGID_161_)" fill="#FFFFFF" width="17.628" height="20.817"/>
	</g>
</g>
<g>
	<defs>
		<path id="SVGID_49_" d="M305.947,361.508l-1.014,2.154c-1.574-0.953-3.148-1.346-4.245-1.346c-1.429,0-2.361,0.537-2.361,1.511
			c0,3.168,7.827,1.47,7.806,6.688c0,2.587-2.278,4.182-5.467,4.182c-2.278,0-4.431-0.931-5.921-2.298l1.056-2.113
			c1.49,1.366,3.353,2.113,4.906,2.113c1.698,0,2.713-0.642,2.713-1.76c0-3.23-7.826-1.428-7.826-6.584
			c0-2.484,2.132-4.037,5.28-4.037C302.758,360.017,304.601,360.617,305.947,361.508"/>
	</defs>
	<use xlink:href="#SVGID_49_"  overflow="visible" fill-rule="evenodd" clip-rule="evenodd" fill="#FFFFFF"/>
	<clipPath id="SVGID_162_">
		<use xlink:href="#SVGID_49_"  overflow="visible"/>
	</clipPath>
	<g clip-path="url(#SVGID_162_)">
		<defs>
			<rect id="SVGID_51_" x="199.106" y="294.621" width="141.01" height="142.907"/>
		</defs>
		<use xlink:href="#SVGID_51_"  overflow="visible" fill="#FFFFFF"/>
		<clipPath id="SVGID_163_">
			<use xlink:href="#SVGID_51_"  overflow="visible"/>
		</clipPath>
		<rect x="291.584" y="356.855" clip-path="url(#SVGID_163_)" fill="#FFFFFF" width="17.711" height="21.004"/>
	</g>
</g>
<g>
	<defs>
		<rect id="SVGID_53_" x="315.201" y="360.12" width="2.443" height="14.494"/>
	</defs>
	<use xlink:href="#SVGID_53_"  overflow="visible" fill-rule="evenodd" clip-rule="evenodd" fill="#FFFFFF"/>
	<clipPath id="SVGID_164_">
		<use xlink:href="#SVGID_53_"  overflow="visible"/>
	</clipPath>
	<g clip-path="url(#SVGID_164_)">
		<defs>
			<rect id="SVGID_55_" x="199.106" y="294.621" width="141.01" height="142.907"/>
		</defs>
		<use xlink:href="#SVGID_55_"  overflow="visible" fill="#FFFFFF"/>
		<clipPath id="SVGID_165_">
			<use xlink:href="#SVGID_55_"  overflow="visible"/>
		</clipPath>
		<rect x="312.039" y="356.959" clip-path="url(#SVGID_165_)" fill="#FFFFFF" width="8.767" height="20.817"/>
	</g>
</g>
<g>
	<defs>
		<polygon id="SVGID_57_" points="339.654,374.614 336.734,374.614 332.821,369.148 328.928,374.614 326.071,374.614 
			331.351,367.181 326.443,360.12 329.28,360.12 332.821,365.152 336.382,360.12 339.24,360.12 334.374,367.078 		"/>
	</defs>
	<use xlink:href="#SVGID_57_"  overflow="visible" fill-rule="evenodd" clip-rule="evenodd" fill="#FFFFFF"/>
	<clipPath id="SVGID_166_">
		<use xlink:href="#SVGID_57_"  overflow="visible"/>
	</clipPath>
	<g clip-path="url(#SVGID_166_)">
		<defs>
			<rect id="SVGID_59_" x="199.106" y="294.621" width="141.01" height="142.907"/>
		</defs>
		<use xlink:href="#SVGID_59_"  overflow="visible" fill="#FFFFFF"/>
		<clipPath id="SVGID_167_">
			<use xlink:href="#SVGID_59_"  overflow="visible"/>
		</clipPath>
		<rect x="322.909" y="356.959" clip-path="url(#SVGID_167_)" fill="#FFFFFF" width="19.906" height="20.817"/>
	</g>
</g>
<g>
	<defs>
		<path id="SVGID_5_" d="M203.478,360.11c4.349,0,7.496,3.044,7.496,7.247c0,4.182-3.168,7.247-7.558,7.247h-5.88V360.11H203.478z
			 M199.979,372.409h3.561c2.816,0,4.969-2.092,4.969-5.033c0-2.96-2.215-5.071-5.073-5.071h-3.458V372.409z"/>
	</defs>
	<use xlink:href="#SVGID_5_"  overflow="visible" fill-rule="evenodd" clip-rule="evenodd" fill="#FFFFFF"/>
	<clipPath id="SVGID_168_">
		<use xlink:href="#SVGID_5_"  overflow="visible"/>
	</clipPath>
	<g clip-path="url(#SVGID_168_)">
		<defs>
			<rect id="SVGID_7_" x="159.568" y="270.582" width="222.581" height="245.977"/>
		</defs>
		<use xlink:href="#SVGID_7_"  overflow="visible" fill="#FFFFFF"/>
		<clipPath id="SVGID_169_">
			<use xlink:href="#SVGID_7_"  overflow="visible"/>
		</clipPath>
		<rect x="194.374" y="356.948" clip-path="url(#SVGID_169_)" fill="#FFFFFF" width="19.761" height="20.817"/>
	</g>
</g>
<g>
	<g>
		<defs>
			<path id="SVGID_13_" d="M189.982,359.503c-0.176-0.171-0.457-0.166-0.628,0.011c-1.097,1.135-2.119,2.241-2.94,3.129
				c-0.21,0.227-0.402,0.435-0.576,0.622l-0.863-0.81l3.425-3.545c0.171-0.177,0.166-0.458-0.011-0.629
				c-0.176-0.17-0.457-0.165-0.627,0.011l-3.435,3.555l-0.814-0.763l3.447-3.567c0.17-0.177,0.165-0.458-0.011-0.628
				c-0.175-0.171-0.457-0.165-0.627,0.011l-3.456,3.576l-0.792-0.743l3.734-3.865c0.171-0.176,0.166-0.457-0.011-0.627
				c-0.176-0.171-0.457-0.166-0.628,0.011l-4.297,4.448c-1.099,1.136-0.959,2.749,0.324,4.199l-2.443,2.566
				c-0.17,0.176-0.165,0.457,0.011,0.627c0.071,0.068,0.158,0.109,0.25,0.121c0.135,0.018,0.276-0.026,0.378-0.132l2.445-2.568
				c0.51,0.398,1.107,0.653,1.727,0.735c0.08,0.011,0.161,0.018,0.242,0.024c0.808,0.049,1.539-0.201,2.006-0.684
				c0.298-0.309,0.72-0.765,1.254-1.342c0.819-0.886,1.836-1.987,2.927-3.116C190.164,359.954,190.159,359.674,189.982,359.503
				 M183.859,364.386c-0.624-0.038-1.232-0.313-1.711-0.776c-0.938-0.906-1.598-2.222-0.69-3.236l3.772,3.539
				c-0.019,0.021-0.038,0.04-0.057,0.059C184.892,364.264,184.4,364.418,183.859,364.386"/>
		</defs>
		<use xlink:href="#SVGID_13_"  overflow="visible" fill-rule="evenodd" clip-rule="evenodd" fill="#FFFFFF"/>
		<clipPath id="SVGID_170_">
			<use xlink:href="#SVGID_13_"  overflow="visible"/>
		</clipPath>
		<g clip-path="url(#SVGID_170_)">
			<defs>
				<rect id="SVGID_15_" x="100.118" y="324.884" width="154.425" height="135.999"/>
			</defs>
			<use xlink:href="#SVGID_15_"  overflow="visible" fill="#FFFFFF"/>
			<clipPath id="SVGID_171_">
				<use xlink:href="#SVGID_15_"  overflow="visible"/>
			</clipPath>
			<rect x="176.435" y="352.923" clip-path="url(#SVGID_171_)" fill="#FFFFFF" width="15.876" height="16.488"/>
		</g>
	</g>
	<g>
		<defs>
			<path id="SVGID_17_" d="M168.359,355.817c-0.193,0.201-0.302,0.49,0.168,2.186c0.281,1.015,2.406,6.661,3.12,8.28
				c1.453,3.293,2.312,3.155,2.807,3.203c0.241,0.023,0.474-0.041,0.673-0.186c0.539-0.395,0.72-0.511,0.929-0.644
				c0.074-0.047,0.152-0.097,0.25-0.161c0.628,0.958,1.414,2.451,2.176,3.9c1.026,1.95,2.087,3.967,2.917,5.001
				c0.527,0.658,1.08,0.838,1.452,0.874c0.71,0.068,1.43-0.335,1.834-1.026c0.408-0.702,0.397-1.518-0.032-2.13
				c-0.881-1.26-13.699-17.054-15.614-19.218C168.771,355.594,168.469,355.7,168.359,355.817 M183.915,376.794
				c-0.229,0.394-0.615,0.625-0.981,0.59c-0.288-0.027-0.58-0.216-0.844-0.545c-0.776-0.968-1.817-2.946-2.823-4.86
				c-0.919-1.747-1.788-3.398-2.486-4.362c-0.078-0.108-0.195-0.17-0.317-0.182c-0.101-0.01-0.205,0.015-0.295,0.077
				c-0.292,0.202-1.004,0.659-1.567,1.069c-0.026,0.019-0.041,0.022-0.064,0.02c-0.299,0.167-0.326-0.064-0.862-0.744
				c-0.864-1.097-3.413-7.618-4.158-9.763c-0.29-0.832,0.004-0.378,0.218-0.12c2.312,2.785,13.331,16.423,14.187,17.647
				C184.196,376.009,184.098,376.482,183.915,376.794"/>
		</defs>
		<use xlink:href="#SVGID_17_"  overflow="visible" fill-rule="evenodd" clip-rule="evenodd" fill="#FFFFFF"/>
		<clipPath id="SVGID_172_">
			<use xlink:href="#SVGID_17_"  overflow="visible"/>
		</clipPath>
		<g clip-path="url(#SVGID_172_)">
			<defs>
				<rect id="SVGID_19_" x="100.118" y="324.884" width="154.425" height="135.999"/>
			</defs>
			<use xlink:href="#SVGID_19_"  overflow="visible" fill="#FFFFFF"/>
			<clipPath id="SVGID_173_">
				<use xlink:href="#SVGID_19_"  overflow="visible"/>
			</clipPath>
			<rect x="166" y="353.505" clip-path="url(#SVGID_173_)" fill="#FFFFFF" width="21.175" height="26.964"/>
		</g>
	</g>
	<g>
		<defs>
			<path id="SVGID_21_" d="M178.194,370.53c-0.189-0.157-0.469-0.132-0.626,0.057c-1.721,2.067-4.847,5.72-5.909,6.726
				c-0.528,0.5-1.39,0.333-1.865-0.137c-0.495-0.491-0.444-1.134,0.141-1.767c1.489-1.603,3.027-2.787,4.694-4.13
				c0.191-0.154,0.221-0.433,0.068-0.624c-0.154-0.191-0.433-0.221-0.624-0.068c-1.689,1.361-3.261,2.573-4.787,4.219
				c-1.113,1.199-0.758,2.366-0.115,3.002c0.362,0.358,0.867,0.609,1.398,0.679c0.59,0.079,1.211-0.065,1.701-0.529
				c1.227-1.161,4.734-5.304,5.981-6.802C178.408,370.967,178.382,370.687,178.194,370.53"/>
		</defs>
		<use xlink:href="#SVGID_21_"  overflow="visible" fill-rule="evenodd" clip-rule="evenodd" fill="#FFFFFF"/>
		<clipPath id="SVGID_174_">
			<use xlink:href="#SVGID_21_"  overflow="visible"/>
		</clipPath>
		<g clip-path="url(#SVGID_174_)">
			<defs>
				<rect id="SVGID_23_" x="100.118" y="324.884" width="154.425" height="135.999"/>
			</defs>
			<use xlink:href="#SVGID_23_"  overflow="visible" fill="#FFFFFF"/>
			<clipPath id="SVGID_175_">
				<use xlink:href="#SVGID_23_"  overflow="visible"/>
			</clipPath>
			<rect x="166.374" y="368.234" clip-path="url(#SVGID_175_)" fill="#FFFFFF" width="14.174" height="12.467"/>
		</g>
	</g>
</g>
<g>
	<defs>
		<rect id="SVGID_29_" x="40.556" y="108.584" width="3.863" height="22.921"/>
	</defs>
	<use xlink:href="#SVGID_29_"  overflow="visible" fill-rule="evenodd" clip-rule="evenodd" fill="#FFFFFF"/>
	<clipPath id="SVGID_176_">
		<use xlink:href="#SVGID_29_"  overflow="visible"/>
	</clipPath>
	<g clip-path="url(#SVGID_176_)">
		<defs>
			<rect id="SVGID_31_" x="5.312" y="5" width="223" height="226"/>
		</defs>
		<use xlink:href="#SVGID_31_"  overflow="visible" fill="#FFFFFF"/>
		<clipPath id="SVGID_177_">
			<use xlink:href="#SVGID_31_"  overflow="visible"/>
		</clipPath>
		<rect x="35.556" y="103.584" clip-path="url(#SVGID_177_)" fill="#FFFFFF" width="13.863" height="32.921"/>
	</g>
</g>
<g>
	<defs>
		<polygon id="SVGID_14_" points="76.343,131.505 64.129,115.068 64.129,131.505 60.266,131.505 60.266,108.584 64.064,108.584 
			76.343,125.055 76.343,108.584 80.141,108.584 80.141,131.505 		"/>
	</defs>
	<use xlink:href="#SVGID_14_"  overflow="visible" fill-rule="evenodd" clip-rule="evenodd" fill="#FFFFFF"/>
	<clipPath id="SVGID_178_">
		<use xlink:href="#SVGID_14_"  overflow="visible"/>
	</clipPath>
	<g clip-path="url(#SVGID_178_)">
		<defs>
			<rect id="SVGID_16_" x="5.312" y="5" width="223" height="226"/>
		</defs>
		<use xlink:href="#SVGID_16_"  overflow="visible" fill="#FFFFFF"/>
		<clipPath id="SVGID_179_">
			<use xlink:href="#SVGID_16_"  overflow="visible"/>
		</clipPath>
		<rect x="55.266" y="103.584" clip-path="url(#SVGID_179_)" fill="#FFFFFF" width="29.875" height="32.921"/>
	</g>
</g>
<g>
	<defs>
		<polygon id="SVGID_11_" points="99.884,112.056 99.884,118.243 111.082,118.243 111.082,121.715 99.884,121.715 99.884,128.035 
			112.786,128.035 112.786,131.505 96.021,131.505 96.021,108.584 112.393,108.584 112.393,112.056 		"/>
	</defs>
	<use xlink:href="#SVGID_11_"  overflow="visible" fill-rule="evenodd" clip-rule="evenodd" fill="#FFFFFF"/>
	<clipPath id="SVGID_180_">
		<use xlink:href="#SVGID_11_"  overflow="visible"/>
	</clipPath>
	<g clip-path="url(#SVGID_180_)">
		<defs>
			<rect id="SVGID_12_" x="5.312" y="5" width="223" height="226"/>
		</defs>
		<use xlink:href="#SVGID_12_"  overflow="visible" fill="#FFFFFF"/>
		<clipPath id="SVGID_181_">
			<use xlink:href="#SVGID_12_"  overflow="visible"/>
		</clipPath>
		<rect x="91.021" y="103.584" clip-path="url(#SVGID_181_)" fill="#FFFFFF" width="26.765" height="32.921"/>
	</g>
</g>
<g>
	<defs>
		<polygon id="SVGID_9_" points="136.228,122.434 136.228,116.999 139.831,116.999 139.831,122.434 143.17,122.434 143.17,125.872 
			139.831,125.872 139.831,131.504 136.228,131.504 136.228,125.872 125.292,125.872 125.292,122.991 133.118,108.583 
			136.851,108.583 129.418,122.434 		"/>
	</defs>
	<use xlink:href="#SVGID_9_"  overflow="visible" fill-rule="evenodd" clip-rule="evenodd" fill="#FFFFFF"/>
	<clipPath id="SVGID_182_">
		<use xlink:href="#SVGID_9_"  overflow="visible"/>
	</clipPath>
	<g clip-path="url(#SVGID_182_)">
		<defs>
			<rect id="SVGID_10_" x="5.312" y="5" width="223" height="226"/>
		</defs>
		<use xlink:href="#SVGID_10_"  overflow="visible" fill="#FFFFFF"/>
		<clipPath id="SVGID_183_">
			<use xlink:href="#SVGID_10_"  overflow="visible"/>
		</clipPath>
		<rect x="120.292" y="103.583" clip-path="url(#SVGID_183_)" fill="#FFFFFF" width="27.878" height="32.921"/>
	</g>
</g>
<g>
	<defs>
		<path id="SVGID_6_" d="M174.275,110.778l-1.604,3.406c-2.489-1.507-4.978-2.128-6.713-2.128c-2.26,0-3.733,0.85-3.733,2.389
			c0,5.01,12.378,2.325,12.345,10.577c0,4.092-3.602,6.614-8.645,6.614c-3.602,0-7.008-1.473-9.364-3.634l1.67-3.341
			c2.357,2.161,5.303,3.341,7.759,3.341c2.686,0,4.29-1.016,4.29-2.784c0-5.108-12.377-2.259-12.377-10.413
			c0-3.929,3.372-6.385,8.35-6.385C169.233,108.42,172.147,109.37,174.275,110.778"/>
	</defs>
	<use xlink:href="#SVGID_6_"  overflow="visible" fill-rule="evenodd" clip-rule="evenodd" fill="#FFFFFF"/>
	<clipPath id="SVGID_184_">
		<use xlink:href="#SVGID_6_"  overflow="visible"/>
	</clipPath>
	<g clip-path="url(#SVGID_184_)">
		<defs>
			<rect id="SVGID_8_" x="5.312" y="5" width="223" height="226"/>
		</defs>
		<use xlink:href="#SVGID_8_"  overflow="visible" fill="#FFFFFF"/>
		<clipPath id="SVGID_185_">
			<use xlink:href="#SVGID_8_"  overflow="visible"/>
		</clipPath>
		<rect x="151.561" y="103.42" clip-path="url(#SVGID_185_)" fill="#FFFFFF" width="28.009" height="33.216"/>
	</g>
</g>
<g>
	<defs>
		<rect id="SVGID_3_" x="188.91" y="108.584" width="3.864" height="22.921"/>
	</defs>
	<use xlink:href="#SVGID_3_"  overflow="visible" fill-rule="evenodd" clip-rule="evenodd" fill="#FFFFFF"/>
	<clipPath id="SVGID_186_">
		<use xlink:href="#SVGID_3_"  overflow="visible"/>
	</clipPath>
	<g clip-path="url(#SVGID_186_)">
		<defs>
			<rect id="SVGID_4_" x="5.312" y="5" width="223" height="226"/>
		</defs>
		<use xlink:href="#SVGID_4_"  overflow="visible" fill="#FFFFFF"/>
		<clipPath id="SVGID_187_">
			<use xlink:href="#SVGID_4_"  overflow="visible"/>
		</clipPath>
		<rect x="183.91" y="103.584" clip-path="url(#SVGID_187_)" fill="#FFFFFF" width="13.864" height="32.921"/>
	</g>
</g>
<g>
	<defs>
		<polygon id="SVGID_1_" points="227.581,131.505 222.964,131.505 216.775,122.86 210.619,131.505 206.1,131.505 214.45,119.75 
			206.688,108.584 211.175,108.584 216.775,116.541 222.407,108.584 226.926,108.584 219.231,119.587 		"/>
	</defs>
	<use xlink:href="#SVGID_1_"  overflow="visible" fill-rule="evenodd" clip-rule="evenodd" fill="#FFFFFF"/>
	<clipPath id="SVGID_188_">
		<use xlink:href="#SVGID_1_"  overflow="visible"/>
	</clipPath>
	<g clip-path="url(#SVGID_188_)">
		<defs>
			<rect id="SVGID_2_" x="5.312" y="5" width="223" height="226"/>
		</defs>
		<use xlink:href="#SVGID_2_"  overflow="visible" fill="#FFFFFF"/>
		<clipPath id="SVGID_189_">
			<use xlink:href="#SVGID_2_"  overflow="visible"/>
		</clipPath>
		<rect x="201.1" y="103.584" clip-path="url(#SVGID_189_)" fill="#FFFFFF" width="31.481" height="32.921"/>
	</g>
</g>
<g>
	<defs>
		<path id="SVGID_22_" d="M92.396,95.223c0.801,0,1.604,0.007,2.407,0.014l-45.559-45.56c-0.596-0.596-1.561-0.596-2.157,0
			c-0.596,0.596-0.596,1.561,0,2.157l43.662,43.661C91.247,95.335,91.783,95.223,92.396,95.223"/>
	</defs>
	<use xlink:href="#SVGID_22_"  overflow="visible" fill-rule="evenodd" clip-rule="evenodd" fill="#FFFFFF"/>
	<clipPath id="SVGID_190_">
		<use xlink:href="#SVGID_22_"  overflow="visible"/>
	</clipPath>
	<g clip-path="url(#SVGID_190_)">
		<defs>
			<rect id="SVGID_61_" x="-60.312" y="-38" width="352" height="310"/>
		</defs>
		<use xlink:href="#SVGID_61_"  overflow="visible" fill="#FFFFFF"/>
		<clipPath id="SVGID_191_">
			<use xlink:href="#SVGID_61_"  overflow="visible"/>
		</clipPath>
		<rect x="41.64" y="44.23" clip-path="url(#SVGID_191_)" fill="#FFFFFF" width="58.163" height="56.265"/>
	</g>
</g>
<g>
	<defs>
		<path id="SVGID_63_" d="M183.462,183.895l-39.491-39.491c-1.317,0.243-2.684,0.334-3.999,0.314l41.333,41.334
			c0.298,0.298,0.688,0.447,1.078,0.447c0.391,0,0.781-0.149,1.079-0.447C184.058,185.456,184.058,184.491,183.462,183.895"/>
	</defs>
	<use xlink:href="#SVGID_63_"  overflow="visible" fill-rule="evenodd" clip-rule="evenodd" fill="#FFFFFF"/>
	<clipPath id="SVGID_192_">
		<use xlink:href="#SVGID_63_"  overflow="visible"/>
	</clipPath>
	<g clip-path="url(#SVGID_192_)">
		<defs>
			<rect id="SVGID_65_" x="-60.312" y="-38" width="352" height="310"/>
		</defs>
		<use xlink:href="#SVGID_65_"  overflow="visible" fill="#FFFFFF"/>
		<clipPath id="SVGID_193_">
			<use xlink:href="#SVGID_65_"  overflow="visible"/>
		</clipPath>
		<rect x="134.972" y="139.404" clip-path="url(#SVGID_193_)" fill="#FFFFFF" width="53.937" height="52.095"/>
	</g>
</g>
<g>
	<defs>
		<path id="SVGID_67_" d="M85.377,145.605l-38.29,38.29c-0.596,0.596-0.596,1.561,0,2.157c0.298,0.298,0.688,0.447,1.078,0.447
			s0.781-0.149,1.079-0.447l40.125-40.126C88.032,145.905,86.698,145.783,85.377,145.605"/>
	</defs>
	<use xlink:href="#SVGID_67_"  overflow="visible" fill-rule="evenodd" clip-rule="evenodd" fill="#FFFFFF"/>
	<clipPath id="SVGID_194_">
		<use xlink:href="#SVGID_67_"  overflow="visible"/>
	</clipPath>
	<g clip-path="url(#SVGID_194_)">
		<defs>
			<rect id="SVGID_69_" x="-60.312" y="-38" width="352" height="310"/>
		</defs>
		<use xlink:href="#SVGID_69_"  overflow="visible" fill="#FFFFFF"/>
		<clipPath id="SVGID_195_">
			<use xlink:href="#SVGID_69_"  overflow="visible"/>
		</clipPath>
		<rect x="41.64" y="140.605" clip-path="url(#SVGID_195_)" fill="#FFFFFF" width="52.729" height="50.894"/>
	</g>
</g>
<g>
	<defs>
		<path id="SVGID_71_" d="M183.462,49.677c-0.596-0.596-1.561-0.596-2.157,0l-45.32,45.32c1.177,0.184,2.342,0.462,3.497,0.817
			l43.98-43.98C184.058,51.238,184.058,50.273,183.462,49.677"/>
	</defs>
	<use xlink:href="#SVGID_71_"  overflow="visible" fill-rule="evenodd" clip-rule="evenodd" fill="#FFFFFF"/>
	<clipPath id="SVGID_196_">
		<use xlink:href="#SVGID_71_"  overflow="visible"/>
	</clipPath>
	<g clip-path="url(#SVGID_196_)">
		<defs>
			<rect id="SVGID_73_" x="-60.312" y="-38" width="352" height="310"/>
		</defs>
		<use xlink:href="#SVGID_73_"  overflow="visible" fill="#FFFFFF"/>
		<clipPath id="SVGID_197_">
			<use xlink:href="#SVGID_73_"  overflow="visible"/>
		</clipPath>
		<rect x="130.985" y="44.23" clip-path="url(#SVGID_197_)" fill="#FFFFFF" width="57.924" height="56.584"/>
	</g>
</g>
<g>
	<defs>
		<path id="SVGID_75_" d="M144.528,40.911c-0.401-0.389-1.042-0.379-1.431,0.024c-2.501,2.588-4.83,5.108-6.702,7.133
			c-0.478,0.518-0.916,0.992-1.314,1.418l-1.968-1.847l7.808-8.081c0.389-0.403,0.379-1.044-0.024-1.433
			c-0.402-0.388-1.042-0.376-1.43,0.026l-7.83,8.103l-1.855-1.739l7.857-8.13c0.388-0.403,0.376-1.044-0.026-1.432
			c-0.4-0.389-1.042-0.377-1.43,0.025l-7.877,8.151l-1.805-1.694l8.511-8.81c0.389-0.402,0.379-1.042-0.024-1.43
			c-0.401-0.389-1.042-0.378-1.431,0.024l-9.795,10.138c-2.504,2.59-2.186,6.267,0.739,9.572l-5.569,5.85
			c-0.388,0.402-0.376,1.042,0.026,1.43c0.162,0.156,0.361,0.248,0.569,0.276c0.307,0.042,0.629-0.06,0.862-0.3l5.573-5.854
			c1.163,0.907,2.524,1.488,3.937,1.676c0.182,0.025,0.366,0.042,0.551,0.054c1.842,0.112,3.509-0.458,4.573-1.558
			c0.679-0.704,1.642-1.744,2.858-3.06c1.866-2.019,4.186-4.53,6.672-7.102C144.942,41.938,144.93,41.299,144.528,40.911
			 M130.571,52.04c-1.423-0.086-2.809-0.714-3.901-1.769c-2.137-2.065-3.642-5.066-1.572-7.377l8.598,8.068
			c-0.044,0.047-0.086,0.091-0.129,0.135C132.924,51.762,131.804,52.114,130.571,52.04"/>
	</defs>
	<use xlink:href="#SVGID_75_"  overflow="visible" fill-rule="evenodd" clip-rule="evenodd" fill="#FFFFFF"/>
	<clipPath id="SVGID_198_">
		<use xlink:href="#SVGID_75_"  overflow="visible"/>
	</clipPath>
	<g clip-path="url(#SVGID_198_)">
		<defs>
			<rect id="SVGID_77_" x="-60.312" y="-38" width="352" height="310"/>
		</defs>
		<use xlink:href="#SVGID_77_"  overflow="visible" fill="#FFFFFF"/>
		<clipPath id="SVGID_199_">
			<use xlink:href="#SVGID_77_"  overflow="visible"/>
		</clipPath>
		<rect x="113.649" y="25.911" clip-path="url(#SVGID_199_)" fill="#FFFFFF" width="36.189" height="37.584"/>
	</g>
</g>
<g>
	<defs>
		<path id="SVGID_79_" d="M95.239,32.507c-0.439,0.459-0.688,1.117,0.384,4.983c0.641,2.314,5.485,15.183,7.112,18.873
			c3.313,7.505,5.269,7.191,6.399,7.3c0.55,0.053,1.081-0.093,1.533-0.424c1.229-0.9,1.641-1.164,2.117-1.469
			c0.168-0.106,0.346-0.22,0.569-0.368c1.432,2.183,3.222,5.586,4.959,8.889c2.339,4.445,4.758,9.042,6.648,11.4
			c1.201,1.499,2.462,1.911,3.309,1.992c1.619,0.155,3.26-0.763,4.18-2.339c0.931-1.601,0.905-3.46-0.072-4.856
			c-2.008-2.873-31.227-38.874-35.592-43.806C96.178,31.999,95.491,32.24,95.239,32.507 M130.699,80.323
			c-0.522,0.897-1.401,1.424-2.237,1.344c-0.657-0.062-1.322-0.492-1.923-1.242c-1.769-2.206-4.141-6.715-6.435-11.077
			c-2.095-3.983-4.076-7.745-5.666-9.942c-0.177-0.246-0.444-0.387-0.723-0.414c-0.23-0.022-0.468,0.034-0.673,0.176
			c-0.665,0.46-2.289,1.502-3.571,2.436c-0.059,0.043-0.093,0.049-0.145,0.045c-0.682,0.381-0.743-0.145-1.965-1.697
			c-1.969-2.5-7.78-17.365-9.478-22.254c-0.661-1.896,0.01-0.862,0.498-0.274c5.271,6.348,30.387,37.434,32.339,40.225
			C131.339,78.533,131.116,79.611,130.699,80.323"/>
	</defs>
	<use xlink:href="#SVGID_79_"  overflow="visible" fill-rule="evenodd" clip-rule="evenodd" fill="#FFFFFF"/>
	<clipPath id="SVGID_200_">
		<use xlink:href="#SVGID_79_"  overflow="visible"/>
	</clipPath>
	<g clip-path="url(#SVGID_200_)">
		<defs>
			<rect id="SVGID_81_" x="-60.312" y="-38" width="352" height="310"/>
		</defs>
		<use xlink:href="#SVGID_81_"  overflow="visible" fill="#FFFFFF"/>
		<clipPath id="SVGID_201_">
			<use xlink:href="#SVGID_81_"  overflow="visible"/>
		</clipPath>
		<rect x="89.863" y="27.238" clip-path="url(#SVGID_201_)" fill="#FFFFFF" width="48.266" height="61.462"/>
	</g>
</g>
<g>
	<defs>
		<path id="SVGID_83_" d="M117.658,66.045c-0.431-0.357-1.069-0.3-1.426,0.131c-3.923,4.711-11.049,13.039-13.47,15.331
			c-1.204,1.139-3.168,0.758-4.25-0.313c-1.129-1.119-1.013-2.586,0.322-4.027c3.393-3.655,6.9-6.352,10.699-9.415
			c0.436-0.351,0.504-0.988,0.154-1.423c-0.352-0.436-0.988-0.503-1.423-0.154c-3.85,3.103-7.433,5.865-10.912,9.616
			c-2.536,2.733-1.727,5.394-0.263,6.842c0.826,0.817,1.977,1.388,3.186,1.548c1.344,0.18,2.761-0.147,3.878-1.206
			c2.798-2.646,10.791-12.091,13.634-15.505C118.146,67.041,118.087,66.403,117.658,66.045"/>
	</defs>
	<use xlink:href="#SVGID_83_"  overflow="visible" fill-rule="evenodd" clip-rule="evenodd" fill="#FFFFFF"/>
	<clipPath id="SVGID_202_">
		<use xlink:href="#SVGID_83_"  overflow="visible"/>
	</clipPath>
	<g clip-path="url(#SVGID_202_)">
		<defs>
			<rect id="SVGID_85_" x="-60.312" y="-38" width="352" height="310"/>
		</defs>
		<use xlink:href="#SVGID_85_"  overflow="visible" fill="#FFFFFF"/>
		<clipPath id="SVGID_203_">
			<use xlink:href="#SVGID_85_"  overflow="visible"/>
		</clipPath>
		<rect x="90.714" y="60.811" clip-path="url(#SVGID_203_)" fill="#FFFFFF" width="32.309" height="28.417"/>
	</g>
</g>
<g>
	<defs>
		<path id="SVGID_87_" d="M140.321,179.413c0-2.796-0.666-5.537-1.927-7.929c-0.152-0.289-0.451-0.468-0.777-0.468h-15.462
			c0.512-2.736,0.772-5.913,0.772-9.457c0-0.485-0.394-0.878-0.878-0.878H91.106c-0.484,0-0.878,0.393-0.878,0.878
			c0,8.841,1.546,15.061,4.725,19.019c2.545,3.168,6.067,4.803,10.746,4.982v20.035h-6.182c-0.484,0-0.878,0.393-0.878,0.878
			c0,0.484,0.394,0.878,0.878,0.878h14.12c0.485,0,0.878-0.394,0.878-0.878c0-0.485-0.393-0.878-0.878-0.878h-6.182v-20.036
			c2.271-0.086,4.245-0.513,5.993-1.294c1.724,5.897,6.502,10.245,12.214,10.652v10.678h-6.181c-0.486,0-0.878,0.393-0.878,0.878
			c0,0.484,0.392,0.878,0.878,0.878H133.6c0.484,0,0.878-0.394,0.878-0.878c0-0.485-0.394-0.878-0.878-0.878h-6.182v-10.678
			C134.609,194.404,140.321,187.648,140.321,179.413z M138.53,178.374h-23.979c0.128-1.967,0.623-3.879,1.452-5.603h21.074
			C137.906,174.495,138.401,176.407,138.53,178.374z M121.165,162.437c-0.024,1.892-0.127,3.668-0.306,5.313h-28.56
			c-0.178-1.608-0.285-3.373-0.31-5.313H121.165z M106.577,183.821c-5.31,0-12.103-1.657-14.049-14.315h28.103
			c-0.079,0.518-0.166,1.021-0.263,1.51h-4.905c-0.326,0-0.625,0.179-0.777,0.468c-1.261,2.392-1.926,5.133-1.926,7.929
			c0,1.064,0.095,2.103,0.276,3.108C111.227,183.395,109.11,183.821,106.577,183.821z M114.531,180.13h24.018
			c-0.327,7.267-5.588,13.063-12.009,13.063C120.119,193.193,114.858,187.397,114.531,180.13z"/>
	</defs>
	<use xlink:href="#SVGID_87_"  overflow="visible" fill-rule="evenodd" clip-rule="evenodd" fill="#FFFFFF"/>
	<clipPath id="SVGID_204_">
		<use xlink:href="#SVGID_87_"  overflow="visible"/>
	</clipPath>
	<g clip-path="url(#SVGID_204_)">
		<defs>
			<rect id="SVGID_89_" x="-60.312" y="-38" width="352" height="310"/>
		</defs>
		<use xlink:href="#SVGID_89_"  overflow="visible" fill="#FFFFFF"/>
		<clipPath id="SVGID_205_">
			<use xlink:href="#SVGID_89_"  overflow="visible"/>
		</clipPath>
		<rect x="85.228" y="155.681" clip-path="url(#SVGID_205_)" fill="#FFFFFF" width="60.093" height="56.67"/>
	</g>
</g>
<g>
	<defs>
		<path id="SVGID_18_" d="M7.772,95.428C18.158,45.6,62.41,8.05,115.274,8.05c52.626,0,96.705,37.217,107.348,86.708
			c1.069-0.129,2.212,0.045,3.243,0.512C215.37,43.826,169.772,5,115.274,5C60.784,5,15.19,43.817,4.688,95.251
			C5.73,94.89,6.803,94.985,7.772,95.428"/>
	</defs>
	<use xlink:href="#SVGID_18_"  overflow="visible" fill-rule="evenodd" clip-rule="evenodd" fill="#FFFFFF"/>
	<clipPath id="SVGID_206_">
		<use xlink:href="#SVGID_18_"  overflow="visible"/>
	</clipPath>
	<g clip-path="url(#SVGID_206_)">
		<defs>
			<rect id="SVGID_20_" x="4.688" y="5" width="222" height="91"/>
		</defs>
		<use xlink:href="#SVGID_20_"  overflow="visible" fill="#FFFFFF"/>
		<clipPath id="SVGID_207_">
			<use xlink:href="#SVGID_20_"  overflow="visible"/>
		</clipPath>
	</g>
</g>
<path id="SVGID_27_" fill-rule="evenodd" clip-rule="evenodd" fill="#FFFFFF" d="M221.511,145.545
	c-12.305,47.188-55.248,82.135-106.237,82.135c-50.936,0-93.874-34.863-106.23-81.978c-0.988,0.405-2.064,0.534-3.07,0.356
	c12.553,48.636,56.797,84.673,109.3,84.673c52.632,0,96.916-36.233,109.342-85.051C223.603,145.824,222.553,145.775,221.511,145.545
	"/>
<path fill="#F16C1F" d="M431,432.558c0,6.454-5.275,11.685-11.782,11.685h-686.943c-6.507,0-11.782-5.232-11.782-11.685v-53.886
	c0-6.454,5.275-11.685,11.782-11.685h686.943c6.507,0,11.782,5.232,11.782,11.685V432.558z"/>
</svg>
